<svg width="18" height="15" viewBox="0 0 18 15" fill="none" xmlns="http://www.w3.org/2000/svg">
<path d="M9.10847 3.37112L8.77034 3.06097L7.63434 2.01897L7.6343 2.01893C6.15355 0.660397 3.73728 0.660356 2.25647 2.01881L9.10847 3.37112ZM9.10847 3.37112L9.44646 3.06082M9.10847 3.37112L9.44646 3.06082M9.44646 3.06082L10.5813 2.01893M9.44646 3.06082L10.5813 2.01893M10.5813 2.01893C12.0621 0.660394 14.4794 0.660356 15.9602 2.01882L10.5813 2.01893ZM2.25637 7.52809L2.25641 7.52813L9.10832 13.8168L15.9602 7.52818C15.9602 7.52817 15.9602 7.52815 15.9602 7.52813C17.6243 6.00029 17.6243 3.54679 15.9603 2.01893L2.25637 7.52809ZM2.25637 7.52809C0.591409 6.00033 0.591204 3.54787 2.25634 2.01893L2.25637 7.52809Z" stroke="#DADADA"/>
</svg>
