<svg width="19" height="16" viewBox="0 0 19 16" fill="none" xmlns="http://www.w3.org/2000/svg">
<path d="M18.9587 3.63803L16.7489 10.5978C16.5837 11.0935 16.15 11.4239 15.6337 11.4239H7.10435C6.6087 11.4239 6.1337 11.1141 5.96848 10.6598L2.70543 1.9239H0.826087C0.371739 1.9239 0 1.55216 0 1.09782C0 0.643468 0.371739 0.271729 0.826087 0.271729H3.2837C3.63478 0.271729 3.94457 0.498902 4.06848 0.829337L7.43478 9.77173H15.2826L17.038 4.19564H7.31087C6.85652 4.19564 6.48478 3.8239 6.48478 3.36955C6.48478 2.91521 6.85652 2.54347 7.31087 2.54347H18.1739C18.4424 2.54347 18.6902 2.68803 18.8348 2.89455C19 3.10108 19.0413 3.39021 18.9587 3.63803ZM7.51739 12.5185C7.1663 12.5185 6.81522 12.663 6.56739 12.9109C6.31956 13.1587 6.175 13.5098 6.175 13.8609C6.175 14.2119 6.31956 14.563 6.56739 14.8109C6.81522 15.0587 7.1663 15.2033 7.51739 15.2033C7.86848 15.2033 8.21957 15.0587 8.46739 14.8109C8.71522 14.563 8.85978 14.2119 8.85978 13.8609C8.85978 13.5098 8.71522 13.1587 8.46739 12.9109C8.21957 12.663 7.86848 12.5185 7.51739 12.5185ZM14.9315 12.5185C14.5804 12.5185 14.2293 12.663 13.9815 12.9109C13.7337 13.1587 13.5891 13.5098 13.5891 13.8609C13.5891 14.2119 13.7337 14.563 13.9815 14.8109C14.2293 15.0587 14.5804 15.2033 14.9315 15.2033C15.2826 15.2033 15.6337 15.0587 15.8815 14.8109C16.1293 14.563 16.2739 14.2119 16.2739 13.8609C16.2739 13.5098 16.1293 13.1587 15.8815 12.9109C15.6337 12.663 15.2826 12.5185 14.9315 12.5185Z" fill="#D6096E"/>
</svg>
