<svg width="34" height="24" viewBox="0 0 34 24" fill="none" xmlns="http://www.w3.org/2000/svg">
<path d="M28.7112 2.016C26.5599 1.072 24.2752 0.383997 21.8904 0C21.5902 0.496004 21.2566 1.16799 21.0232 1.696C18.4867 1.34399 15.9685 1.34399 13.467 1.696C13.2335 1.16799 12.8832 0.496004 12.5997 0C10.1983 0.383997 7.91361 1.072 5.77733 2.016C1.45807 8.12797 0.290699 14.0959 0.874384 19.9839C3.74277 21.9839 6.51113 23.2 9.23111 24C9.89817 23.136 10.4985 22.2079 11.0155 21.232C10.0316 20.88 9.0977 20.4479 8.19715 19.9359C8.43063 19.776 8.66411 19.6 8.88091 19.424C14.3175 21.808 20.2061 21.808 25.5759 19.424C25.8094 19.6 26.0262 19.776 26.2597 19.9359C25.3591 20.4479 24.4253 20.88 23.4413 21.232C23.9583 22.2079 24.5587 23.136 25.2257 24C27.944 23.2 30.729 21.9839 33.5824 19.9839C34.2994 13.168 32.4467 7.24803 28.7112 2.016ZM11.766 16.3519C10.1316 16.3519 8.79749 14.928 8.79749 13.184C8.79749 11.44 10.0983 10.016 11.766 10.016C13.4169 10.016 14.7677 11.44 14.7343 13.184C14.7343 14.928 13.4169 16.3519 11.766 16.3519ZM22.7243 16.3519C21.0899 16.3519 19.7541 14.928 19.7541 13.184C19.7541 11.44 21.0565 10.016 22.7243 10.016C24.3752 10.016 25.726 11.44 25.6926 13.184C25.6926 14.928 24.3919 16.3519 22.7243 16.3519Z" fill="#5865F2"/>
</svg>
