<svg width="43" height="46" viewBox="0 0 43 46" fill="none" xmlns="http://www.w3.org/2000/svg">
<path d="M15.0712 39.2545L14.6951 38.8452C13.9731 37.9821 13.4593 36.9374 13.2 35.8049C12.9393 34.6679 12.8964 33.4848 13.074 32.329C13.2064 31.3632 13.4514 30.4198 13.8032 29.5215C14.0184 28.9993 14.2933 28.5087 14.6214 28.0615C14.8966 27.6729 15.1968 27.3061 15.5199 26.9641C15.4839 26.9695 15.4496 26.9843 15.4199 27.0071C14.2673 27.6603 12.9988 28.0352 11.701 28.1063C10.7945 28.1695 9.8844 28.0858 9.00049 27.858C8.10072 27.6196 7.25418 27.1868 6.51116 26.5853C6.11281 26.2624 5.74956 25.8913 5.42843 25.4789C4.89683 24.8138 4.48228 24.0479 4.20549 23.2195C4.14115 23.0298 4.20054 22.8946 4.37266 22.8174C4.78177 22.6331 5.19088 22.4492 5.6 22.2657L5.68633 22.2256C5.55106 22.1215 5.42459 22.0234 5.30141 21.9264C5.02812 21.7176 4.75372 21.5088 4.48043 21.2988C4.42847 21.2585 4.39155 21.1992 4.37641 21.1317C4.36127 21.0643 4.36891 20.9932 4.39795 20.9314C4.50031 20.66 4.628 20.4007 4.77902 20.1577C4.99549 19.8026 5.247 19.4743 5.52906 19.1788C6.10358 18.5808 6.78279 18.1148 7.52625 17.8085C8.35094 17.4716 9.2223 17.2899 10.103 17.2712C10.7631 17.2404 11.4243 17.2863 12.0755 17.4082C12.8542 17.5758 13.6056 17.8691 14.3047 18.2782C14.8087 18.5643 15.2937 18.8882 15.7564 19.2476C15.7747 19.2617 15.7947 19.2729 15.8158 19.2811C15.6305 19.0675 15.4408 18.8586 15.2587 18.6426C14.5802 17.8372 13.9572 16.9869 13.4623 16.032C12.9674 15.077 12.572 14.0687 12.3845 12.9791C12.2107 11.9332 12.2459 10.9004 12.578 9.89154C12.9597 8.75559 13.6748 7.7882 14.6126 7.13907C14.7913 7.0176 14.8826 7.03196 15.0322 7.19472C15.3918 7.58605 15.7518 7.97778 16.1122 8.3699C16.1408 8.35076 16.1336 8.32024 16.1375 8.29571C16.2034 7.80904 16.2676 7.32357 16.3299 6.83929C16.3591 6.63166 16.4778 6.53353 16.6631 6.56883C17.2033 6.67868 17.7248 6.87806 18.2094 7.16001C18.6647 7.41625 19.0905 7.73018 19.478 8.09526C20.2466 8.82468 20.8669 9.72057 21.2992 10.7257C21.6233 11.4538 21.8629 12.2231 22.0124 13.0156C22.1299 13.6875 22.1686 14.3729 22.1274 15.0554C22.0947 15.674 22.0186 16.2889 21.8997 16.8948C21.8964 16.9139 21.8942 16.9319 21.8887 16.9738C21.9877 16.7799 22.0751 16.6058 22.1636 16.4353C22.4917 15.8002 22.8696 15.1972 23.2931 14.633C23.6895 14.1096 24.1257 13.6234 24.5969 13.1796C25.0802 12.7155 25.61 12.3121 26.1762 11.9768C27.1275 11.4204 28.1409 11.123 29.2286 11.1685C30.0881 11.205 30.9288 11.4536 31.6871 11.8955C31.8875 12.01 32.0803 12.1398 32.2639 12.2838C32.281 12.3024 32.3046 12.3161 32.3255 12.3365C32.463 12.4645 32.4834 12.5752 32.4003 12.7493C32.1976 13.1718 31.9951 13.594 31.7927 14.0161C31.7817 14.04 31.7701 14.0645 31.7526 14.104C31.8609 14.095 31.9582 14.0885 32.0583 14.0777L33.2097 13.97C33.2731 13.9603 33.3376 13.9769 33.3902 14.0166C33.4428 14.0564 33.4797 14.1162 33.4935 14.1842C33.5825 14.5015 33.6382 14.8286 33.6596 15.1595C33.7657 16.6213 33.4231 17.9587 32.6852 19.1865C32.3483 19.7366 31.9491 20.2382 31.4969 20.6794C30.859 21.2969 30.1564 21.8302 29.4034 22.2681C28.6647 22.7128 27.8693 23.0355 27.0433 23.2255L26.9729 23.2434C27.0147 23.259 27.0389 23.2698 27.0637 23.2775C28.1851 23.6464 29.2486 24.1984 30.2178 24.9147C30.7446 25.2956 31.2314 25.7383 31.6695 26.2347C32.6786 27.3829 33.3588 28.7203 33.6178 30.2946C33.6979 30.7585 33.7262 31.2312 33.7019 31.7025C33.6997 31.7408 33.6973 31.7781 33.6948 31.8144C33.6923 31.853 33.6825 31.8906 33.6661 31.9249C33.6496 31.9591 33.6269 31.9894 33.5992 32.0136C33.5715 32.0379 33.5396 32.0557 33.5053 32.0659C33.471 32.0761 33.4352 32.0785 33.4 32.0729C32.9542 32.0282 32.5083 31.9817 32.0621 31.9335L31.9758 31.9269L32.1771 32.3577L32.6318 33.3217C32.6581 33.3689 32.6713 33.4233 32.67 33.4785C32.6686 33.5337 32.6527 33.5872 32.6241 33.6328C32.5983 33.661 32.5724 33.6891 32.5471 33.7166C32.1664 33.9743 31.7593 34.1827 31.3341 34.3377C30.5534 34.6401 29.7267 34.7772 28.8986 34.7416C27.8066 34.6875 26.7454 34.331 25.8154 33.7058C25.3619 33.4054 24.9345 33.0605 24.5386 32.6754C24.1206 32.2671 23.7299 31.8268 23.3695 31.3578C23.1677 31.0988 22.9709 30.8283 22.79 30.5525C22.7795 30.5392 22.7681 30.5268 22.7559 30.5154C22.7757 30.6721 22.7944 30.8145 22.8098 30.9581C22.9017 31.9078 22.8717 32.8668 22.7207 33.8076C22.5915 34.7271 22.3263 35.6178 21.9354 36.4451C21.5053 37.3473 20.9052 38.1405 20.1741 38.7731C19.4431 39.4056 18.5977 39.8633 17.6931 40.1161C17.6392 40.1317 17.5848 40.1442 17.5303 40.1544C17.4954 40.1645 17.4589 40.1666 17.4232 40.1606C17.3874 40.1546 17.3532 40.1406 17.3227 40.1195C17.2922 40.0985 17.266 40.0708 17.2458 40.0381C17.2256 40.0055 17.2118 39.9687 17.2053 39.93L16.8716 38.528L16.8534 38.4592C16.7825 38.5364 16.7176 38.607 16.6527 38.6776C16.3965 38.9756 16.1424 39.276 15.8856 39.5734C15.7619 39.7164 15.6453 39.7296 15.4968 39.6207C15.3474 39.5094 15.2052 39.387 15.0712 39.2545Z" fill="#FFA7D2"/>
<path d="M23.0815 22.3615C22.7199 22.755 22.1493 22.8208 21.6592 22.5208C21.257 22.2747 20.9999 21.9172 20.9937 21.3973C20.9827 20.5789 21.6894 20.0029 22.4435 20.2056C22.6132 20.2457 22.7738 20.322 22.916 20.4303C23.0582 20.5386 23.1792 20.6766 23.2719 20.8362C23.4034 21.0764 23.4562 21.358 23.4216 21.6351C23.387 21.9121 23.2671 22.1682 23.0815 22.3615Z" fill="#D6096E"/>
<path d="M18.4349 28.2165C18.3282 28.1068 18.2426 27.9752 18.183 27.8292C18.1234 27.6833 18.091 27.526 18.0876 27.3663C18.0842 27.2067 18.1099 27.0479 18.1633 26.8992C18.2166 26.7504 18.2966 26.6146 18.3985 26.4997C18.7092 26.1317 19.2694 26.0157 19.7341 26.2282C20.1095 26.4002 20.3955 26.6755 20.4924 27.1191C20.5493 27.3495 20.5425 27.5931 20.473 27.8194C20.4034 28.0457 20.2741 28.2447 20.1012 28.3915C19.7596 28.7079 19.365 28.7259 18.9553 28.5748C18.7575 28.5034 18.5788 28.3804 18.4349 28.2165V28.2165Z" fill="#D6096E"/>
<path d="M21.9076 26.2901C21.7283 26.1063 21.6105 25.8625 21.573 25.5976C21.5356 25.3326 21.5805 25.0616 21.7007 24.8277C21.8285 24.5806 22.0294 24.3878 22.2706 24.2807C22.5118 24.1735 22.7793 24.1583 23.0295 24.2374C23.4543 24.3601 23.787 24.6234 23.9417 25.0805C24.0179 25.3009 24.0324 25.541 23.9833 25.7704C23.9342 25.9997 23.8239 26.2082 23.6661 26.3694C23.3326 26.7456 22.9167 26.8032 22.4706 26.6544C22.2583 26.5851 22.0649 26.46 21.9076 26.2901Z" fill="#D6096E"/>
<path d="M17.5916 23.2739C18.0508 23.7497 17.9566 24.485 17.6363 24.9114C17.2259 25.4582 16.5783 25.4448 16.1122 25.156C15.721 24.9129 15.4729 24.5576 15.466 24.0504C15.464 23.8751 15.4966 23.7013 15.5616 23.5408C15.6266 23.3804 15.7225 23.237 15.8428 23.1203C15.9631 23.0036 16.105 22.9163 16.2589 22.8643C16.4128 22.8124 16.5752 22.797 16.735 22.8191C17.0612 22.8549 17.3649 23.0162 17.5916 23.2739V23.2739Z" fill="#D6096E"/>
<path d="M19.1612 19.9725C19.3772 20.1894 19.508 20.4887 19.5263 20.8079C19.5446 21.1272 19.4491 21.4418 19.2595 21.6863C18.8003 22.2683 18.1011 22.1897 17.6509 21.8583C17.2178 21.5367 17.0171 21.0519 17.1154 20.5545C17.2508 19.8461 17.8922 19.4339 18.5638 19.6217C18.7879 19.6793 18.994 19.8003 19.1612 19.9725V19.9725Z" fill="#D6096E"/>
</svg>
