<svg width="33" height="33" viewBox="0 0 33 33" fill="none" xmlns="http://www.w3.org/2000/svg">
<path d="M18.5414 28.9165C14.7742 28.9143 11.1567 27.4418 8.45884 24.8126C5.76094 22.1834 4.19572 18.6051 4.09634 14.8393C3.99695 11.0734 5.37125 7.41752 7.9267 4.64967C10.4822 1.88183 14.017 0.22064 17.7787 0.0196924C17.5102 0.00716087 17.2417 0 16.9731 0C13.8042 0 10.7064 0.939701 8.07155 2.70027C5.43667 4.46084 3.38303 6.96321 2.17033 9.89093C0.957626 12.8186 0.640328 16.0402 1.25856 19.1483C1.87679 22.2563 3.40278 25.1113 5.64356 27.352C7.88434 29.5928 10.7393 31.1188 13.8473 31.737C16.9554 32.3553 20.177 32.038 23.1047 30.8253C26.0324 29.6126 28.5348 27.5589 30.2953 24.9241C32.0559 22.2892 32.9956 19.1914 32.9956 16.0225C32.9956 15.7539 32.9887 15.4854 32.975 15.2169C32.7807 18.9141 31.1754 22.396 28.49 24.9448C25.8046 27.4936 22.2438 28.9152 18.5414 28.9165Z" fill="#FFA7D2"/>
<path d="M16.8871 32.6912C7.73107 32.6912 0.308822 25.268 0.308822 16.112C0.303389 11.7896 1.99205 7.63717 5.01262 4.54536C3.42435 6.0882 2.16222 7.9344 1.30115 9.97437C0.440073 12.0143 -0.00239332 14.2065 9.73594e-06 16.4208C9.73594e-06 25.5769 7.42226 33 16.5783 33C18.7928 33.0026 20.9851 32.5603 23.0253 31.6992C25.0654 30.8381 26.9118 29.5758 28.4546 27.9874C25.3625 31.0079 21.2098 32.6966 16.8871 32.6912Z" fill="#D6096E"/>
<path d="M18.5467 0.895115C15.1277 0.894628 11.8322 2.17301 9.30794 4.47899C6.78366 6.78496 5.21321 9.95173 4.90527 13.3568C5.32527 11.0994 6.34354 8.99607 7.85379 7.26644C9.36405 5.53682 11.3109 4.24431 13.4911 3.52385C15.6713 2.80338 18.005 2.68137 20.2485 3.17055C22.4919 3.65974 24.563 4.74218 26.2453 6.30488C27.9277 7.86758 29.1598 9.85324 29.8129 12.0546C30.466 14.2559 30.5162 16.5922 29.9583 18.8196C29.4004 21.047 28.2548 23.0837 26.6412 24.7173C25.0275 26.3509 23.0049 27.5213 20.7845 28.1064C24.1827 27.5516 27.2472 25.737 29.3677 23.0242C31.4881 20.3114 32.5089 16.8994 32.2267 13.4678C31.9445 10.0362 30.38 6.83677 27.8449 4.50682C25.3097 2.17687 21.9899 0.887358 18.5467 0.895115Z" fill="#FFF4F9"/>
<path d="M29.1725 15.8211C29.1764 18.8869 27.9806 21.8326 25.8409 24.0283C26.9715 22.9435 27.8743 21.644 28.4962 20.206C29.1182 18.7679 29.4469 17.2201 29.4632 15.6534C29.4794 14.0866 29.1827 12.5324 28.5906 11.0817C27.9985 9.6311 27.1228 8.31321 26.0149 7.20529C24.907 6.09737 23.5891 5.22171 22.1385 4.6296C20.6878 4.03749 19.1336 3.74085 17.5668 3.75705C16.0001 3.77326 14.4523 4.10198 13.0142 4.72396C11.5762 5.34595 10.2767 6.24868 9.19189 7.37928C10.8515 5.76554 12.95 4.6768 15.225 4.24919C17.5 3.82157 19.8506 4.07405 21.9829 4.97505C24.1152 5.87606 25.9346 7.38561 27.2137 9.315C28.4928 11.2444 29.1747 13.508 29.1743 15.8228L29.1725 15.8211Z" fill="#D6096E"/>
</svg>
