<svg width="29" height="24" viewBox="0 0 29 24" fill="none" xmlns="http://www.w3.org/2000/svg">
<path fill-rule="evenodd" clip-rule="evenodd" d="M28.7344 2.83422C27.6788 3.31495 26.5422 3.64004 25.35 3.7853C26.5675 3.03827 27.5017 1.85374 27.9418 0.442688C26.8019 1.13438 25.5422 1.63758 24.1965 1.90734C23.1241 0.733193 21.5912 0 19.8948 0C16.6419 0 14.0029 2.70625 14.0029 6.04367C14.0029 6.51748 14.0534 6.97746 14.1546 7.42015C9.25592 7.16768 4.9137 4.76404 2.00483 1.10325C1.49726 1.99899 1.20721 3.03827 1.20721 4.14498C1.20721 6.24081 2.24766 8.09109 3.82941 9.17532C2.86485 9.14592 1.95424 8.87097 1.15831 8.42137V8.49572C1.15831 11.425 3.1903 13.8685 5.88838 14.4218C5.39429 14.5636 4.87323 14.6345 4.3353 14.6345C3.95588 14.6345 3.5849 14.5982 3.22571 14.5273C3.97612 16.9275 6.15144 18.6757 8.73148 18.7224C6.71466 20.3444 4.17173 21.3111 1.41125 21.3111C0.935715 21.3111 0.465242 21.2834 0.00488281 21.2281C2.61359 22.94 5.71301 23.9412 9.04008 23.9412C19.883 23.9412 25.8103 14.7331 25.8103 6.74574C25.8103 6.4829 25.8053 6.22005 25.7951 5.9624C26.9469 5.10988 27.9469 4.04641 28.7344 2.83422Z" fill="#00AAEC"/>
</svg>
