<svg width="1916" height="568" viewBox="0 0 1916 568" fill="none" xmlns="http://www.w3.org/2000/svg">
<ellipse rx="4.62734" ry="5.16428" transform="matrix(1 0 0 -1 639.702 511.644)" fill="url(#paint0_linear_87_876)"/>
<ellipse rx="4.62734" ry="5.16428" transform="matrix(1 0 0 -1 821.37 511.644)" fill="url(#paint1_linear_87_876)"/>
<ellipse rx="4.62734" ry="5.16428" transform="matrix(1 0 0 -1 1003.04 511.644)" fill="url(#paint2_linear_87_876)"/>
<ellipse rx="4.62734" ry="5.16428" transform="matrix(1 0 0 -1 1184.7 511.644)" fill="url(#paint3_linear_87_876)"/>
<ellipse rx="4.62734" ry="5.16428" transform="matrix(1 0 0 -1 1366.37 511.644)" fill="url(#paint4_linear_87_876)"/>
<ellipse rx="4.62734" ry="5.16428" transform="matrix(1 0 0 -1 1548.04 511.644)" fill="url(#paint5_linear_87_876)"/>
<ellipse rx="4.62734" ry="5.16428" transform="matrix(1 0 0 -1 1729.71 511.644)" fill="url(#paint6_linear_87_876)"/>
<ellipse rx="4.62734" ry="5.16428" transform="matrix(1 0 0 -1 1911.37 511.644)" fill="url(#paint7_linear_87_876)"/>
<ellipse rx="4.62734" ry="5.16428" transform="matrix(1 0 0 -1 458.172 511.644)" fill="url(#paint8_linear_87_876)"/>
<ellipse rx="4.62734" ry="5.16428" transform="matrix(1 0 0 -1 276.647 511.644)" fill="url(#paint9_linear_87_876)"/>
<ellipse rx="4.62734" ry="5.16428" transform="matrix(1 0 0 -1 95.1176 511.644)" fill="url(#paint10_linear_87_876)"/>
<ellipse rx="4.62734" ry="5.16428" transform="matrix(1 0 0 -1 548.938 562.293)" fill="url(#paint11_linear_87_876)"/>
<ellipse rx="4.62734" ry="5.16428" transform="matrix(1 0 0 -1 730.606 562.293)" fill="url(#paint12_linear_87_876)"/>
<ellipse rx="4.62734" ry="5.16428" transform="matrix(1 0 0 -1 912.274 562.293)" fill="url(#paint13_linear_87_876)"/>
<ellipse rx="4.62734" ry="5.16428" transform="matrix(1 0 0 -1 1093.94 562.293)" fill="url(#paint14_linear_87_876)"/>
<ellipse rx="4.62734" ry="5.16428" transform="matrix(1 0 0 -1 1275.61 562.293)" fill="url(#paint15_linear_87_876)"/>
<ellipse rx="4.62734" ry="5.16428" transform="matrix(1 0 0 -1 1457.27 562.293)" fill="url(#paint16_linear_87_876)"/>
<ellipse rx="4.62734" ry="5.16428" transform="matrix(1 0 0 -1 1638.94 562.293)" fill="url(#paint17_linear_87_876)"/>
<ellipse rx="4.62734" ry="5.16428" transform="matrix(1 0 0 -1 1820.61 562.293)" fill="url(#paint18_linear_87_876)"/>
<ellipse rx="4.62734" ry="5.16428" transform="matrix(1 0 0 -1 367.411 562.293)" fill="url(#paint19_linear_87_876)"/>
<ellipse rx="4.62734" ry="5.16428" transform="matrix(1 0 0 -1 185.881 562.293)" fill="url(#paint20_linear_87_876)"/>
<ellipse rx="4.62734" ry="5.16428" transform="matrix(1 0 0 -1 4.62734 562.293)" fill="url(#paint21_linear_87_876)"/>
<ellipse rx="4.62734" ry="5.16428" transform="matrix(1 0 0 -1 548.938 460.997)" fill="url(#paint22_linear_87_876)"/>
<ellipse rx="4.62734" ry="5.16428" transform="matrix(1 0 0 -1 730.606 460.997)" fill="url(#paint23_linear_87_876)"/>
<ellipse rx="4.62734" ry="5.16428" transform="matrix(1 0 0 -1 912.274 460.997)" fill="url(#paint24_linear_87_876)"/>
<ellipse rx="4.62734" ry="5.16428" transform="matrix(1 0 0 -1 1093.94 460.997)" fill="url(#paint25_linear_87_876)"/>
<ellipse rx="4.62734" ry="5.16428" transform="matrix(1 0 0 -1 1275.61 460.997)" fill="url(#paint26_linear_87_876)"/>
<ellipse rx="4.62734" ry="5.16428" transform="matrix(1 0 0 -1 1457.27 460.997)" fill="url(#paint27_linear_87_876)"/>
<ellipse rx="4.62734" ry="5.16428" transform="matrix(1 0 0 -1 1638.94 460.997)" fill="url(#paint28_linear_87_876)"/>
<ellipse rx="4.62734" ry="5.16428" transform="matrix(1 0 0 -1 1820.61 460.997)" fill="url(#paint29_linear_87_876)"/>
<ellipse rx="4.62734" ry="5.16428" transform="matrix(1 0 0 -1 367.411 460.997)" fill="url(#paint30_linear_87_876)"/>
<ellipse rx="4.62734" ry="5.16428" transform="matrix(1 0 0 -1 185.881 460.997)" fill="url(#paint31_linear_87_876)"/>
<ellipse rx="4.62734" ry="5.16428" transform="matrix(1 0 0 -1 4.62734 460.997)" fill="url(#paint32_linear_87_876)"/>
<ellipse rx="4.62734" ry="5.16428" transform="matrix(1 0 0 -1 548.938 359.7)" fill="url(#paint33_linear_87_876)"/>
<ellipse rx="4.62734" ry="5.16428" transform="matrix(1 0 0 -1 730.606 359.7)" fill="url(#paint34_linear_87_876)"/>
<ellipse rx="4.62734" ry="5.16428" transform="matrix(1 0 0 -1 912.274 359.7)" fill="url(#paint35_linear_87_876)"/>
<ellipse rx="4.62734" ry="5.16428" transform="matrix(1 0 0 -1 1093.94 359.7)" fill="url(#paint36_linear_87_876)"/>
<ellipse rx="4.62734" ry="5.16428" transform="matrix(1 0 0 -1 1275.61 359.7)" fill="url(#paint37_linear_87_876)"/>
<ellipse rx="4.62734" ry="5.16428" transform="matrix(1 0 0 -1 1457.27 359.7)" fill="url(#paint38_linear_87_876)"/>
<ellipse rx="4.62734" ry="5.16428" transform="matrix(1 0 0 -1 1638.94 359.7)" fill="url(#paint39_linear_87_876)"/>
<ellipse rx="4.62734" ry="5.16428" transform="matrix(1 0 0 -1 1820.61 359.7)" fill="url(#paint40_linear_87_876)"/>
<ellipse rx="4.62734" ry="5.16428" transform="matrix(1 0 0 -1 367.411 359.7)" fill="url(#paint41_linear_87_876)"/>
<ellipse rx="4.62734" ry="5.16428" transform="matrix(1 0 0 -1 185.881 359.7)" fill="url(#paint42_linear_87_876)"/>
<ellipse rx="4.62734" ry="5.16428" transform="matrix(1 0 0 -1 4.62734 359.7)" fill="url(#paint43_linear_87_876)"/>
<ellipse rx="4.62734" ry="5.16428" transform="matrix(1 0 0 -1 548.938 258.404)" fill="url(#paint44_linear_87_876)"/>
<ellipse rx="4.62734" ry="5.16428" transform="matrix(1 0 0 -1 730.606 258.404)" fill="url(#paint45_linear_87_876)"/>
<ellipse rx="4.62734" ry="5.16428" transform="matrix(1 0 0 -1 912.274 258.404)" fill="url(#paint46_linear_87_876)"/>
<ellipse rx="4.62734" ry="5.16428" transform="matrix(1 0 0 -1 1093.94 258.404)" fill="url(#paint47_linear_87_876)"/>
<ellipse rx="4.62734" ry="5.16428" transform="matrix(1 0 0 -1 1275.61 258.404)" fill="url(#paint48_linear_87_876)"/>
<ellipse rx="4.62734" ry="5.16428" transform="matrix(1 0 0 -1 1457.27 258.404)" fill="url(#paint49_linear_87_876)"/>
<ellipse rx="4.62734" ry="5.16428" transform="matrix(1 0 0 -1 1638.94 258.404)" fill="url(#paint50_linear_87_876)"/>
<ellipse rx="4.62734" ry="5.16428" transform="matrix(1 0 0 -1 1820.61 258.404)" fill="url(#paint51_linear_87_876)"/>
<ellipse rx="4.62734" ry="5.16428" transform="matrix(1 0 0 -1 367.411 258.404)" fill="url(#paint52_linear_87_876)"/>
<ellipse rx="4.62734" ry="5.16428" transform="matrix(1 0 0 -1 185.881 258.404)" fill="url(#paint53_linear_87_876)"/>
<ellipse rx="4.62734" ry="5.16428" transform="matrix(1 0 0 -1 4.62734 258.404)" fill="url(#paint54_linear_87_876)"/>
<ellipse rx="4.62734" ry="5.16428" transform="matrix(1 0 0 -1 548.938 157.108)" fill="url(#paint55_linear_87_876)"/>
<ellipse rx="4.62734" ry="5.16428" transform="matrix(1 0 0 -1 730.606 157.108)" fill="url(#paint56_linear_87_876)"/>
<ellipse rx="4.62734" ry="5.16428" transform="matrix(1 0 0 -1 912.274 157.108)" fill="url(#paint57_linear_87_876)"/>
<ellipse rx="4.62734" ry="5.16428" transform="matrix(1 0 0 -1 1093.94 157.108)" fill="url(#paint58_linear_87_876)"/>
<ellipse rx="4.62734" ry="5.16428" transform="matrix(1 0 0 -1 1275.61 157.108)" fill="url(#paint59_linear_87_876)"/>
<ellipse rx="4.62734" ry="5.16428" transform="matrix(1 0 0 -1 1457.27 157.108)" fill="url(#paint60_linear_87_876)"/>
<ellipse rx="4.62734" ry="5.16428" transform="matrix(1 0 0 -1 1638.94 157.108)" fill="url(#paint61_linear_87_876)"/>
<ellipse rx="4.62734" ry="5.16428" transform="matrix(1 0 0 -1 1820.61 157.108)" fill="url(#paint62_linear_87_876)"/>
<ellipse rx="4.62734" ry="5.16428" transform="matrix(1 0 0 -1 367.411 157.108)" fill="url(#paint63_linear_87_876)"/>
<ellipse rx="4.62734" ry="5.16428" transform="matrix(1 0 0 -1 185.881 157.108)" fill="url(#paint64_linear_87_876)"/>
<ellipse rx="4.62734" ry="5.16428" transform="matrix(1 0 0 -1 4.62734 157.108)" fill="url(#paint65_linear_87_876)"/>
<ellipse rx="4.62734" ry="5.16428" transform="matrix(1 0 0 -1 548.938 55.8123)" fill="url(#paint66_linear_87_876)"/>
<ellipse rx="4.62734" ry="5.16428" transform="matrix(1 0 0 -1 730.606 55.8123)" fill="url(#paint67_linear_87_876)"/>
<ellipse rx="4.62734" ry="5.16428" transform="matrix(1 0 0 -1 912.274 55.8123)" fill="url(#paint68_linear_87_876)"/>
<ellipse rx="4.62734" ry="5.16428" transform="matrix(1 0 0 -1 1093.94 55.8123)" fill="url(#paint69_linear_87_876)"/>
<ellipse rx="4.62734" ry="5.16428" transform="matrix(1 0 0 -1 1275.61 55.8123)" fill="url(#paint70_linear_87_876)"/>
<ellipse rx="4.62734" ry="5.16428" transform="matrix(1 0 0 -1 1457.27 55.8123)" fill="url(#paint71_linear_87_876)"/>
<ellipse rx="4.62734" ry="5.16428" transform="matrix(1 0 0 -1 1638.94 55.8123)" fill="url(#paint72_linear_87_876)"/>
<ellipse rx="4.62734" ry="5.16428" transform="matrix(1 0 0 -1 1820.61 55.8123)" fill="url(#paint73_linear_87_876)"/>
<ellipse rx="4.62734" ry="5.16428" transform="matrix(1 0 0 -1 367.411 55.8123)" fill="url(#paint74_linear_87_876)"/>
<ellipse rx="4.62734" ry="5.16428" transform="matrix(1 0 0 -1 185.881 55.8123)" fill="url(#paint75_linear_87_876)"/>
<ellipse rx="4.62734" ry="5.16428" transform="matrix(1 0 0 -1 4.62734 55.8123)" fill="url(#paint76_linear_87_876)"/>
<ellipse rx="4.62734" ry="5.16428" transform="matrix(1 0 0 -1 639.702 410.349)" fill="url(#paint77_linear_87_876)"/>
<ellipse rx="4.62734" ry="5.16428" transform="matrix(1 0 0 -1 821.37 410.349)" fill="url(#paint78_linear_87_876)"/>
<ellipse rx="4.62734" ry="5.16428" transform="matrix(1 0 0 -1 1003.04 410.349)" fill="url(#paint79_linear_87_876)"/>
<ellipse rx="4.62734" ry="5.16428" transform="matrix(1 0 0 -1 1184.7 410.349)" fill="url(#paint80_linear_87_876)"/>
<ellipse rx="4.62734" ry="5.16428" transform="matrix(1 0 0 -1 1366.37 410.349)" fill="url(#paint81_linear_87_876)"/>
<ellipse rx="4.62734" ry="5.16428" transform="matrix(1 0 0 -1 1548.04 410.349)" fill="url(#paint82_linear_87_876)"/>
<ellipse rx="4.62734" ry="5.16428" transform="matrix(1 0 0 -1 1729.71 410.349)" fill="url(#paint83_linear_87_876)"/>
<ellipse rx="4.62734" ry="5.16428" transform="matrix(1 0 0 -1 1911.37 410.349)" fill="url(#paint84_linear_87_876)"/>
<ellipse rx="4.62734" ry="5.16428" transform="matrix(1 0 0 -1 458.172 410.349)" fill="url(#paint85_linear_87_876)"/>
<ellipse rx="4.62734" ry="5.16428" transform="matrix(1 0 0 -1 276.647 410.349)" fill="url(#paint86_linear_87_876)"/>
<ellipse rx="4.62734" ry="5.16428" transform="matrix(1 0 0 -1 95.1176 410.349)" fill="url(#paint87_linear_87_876)"/>
<ellipse rx="4.62734" ry="5.16428" transform="matrix(1 0 0 -1 639.702 309.053)" fill="url(#paint88_linear_87_876)"/>
<ellipse rx="4.62734" ry="5.16428" transform="matrix(1 0 0 -1 821.37 309.053)" fill="url(#paint89_linear_87_876)"/>
<ellipse rx="4.62734" ry="5.16428" transform="matrix(1 0 0 -1 1003.04 309.053)" fill="url(#paint90_linear_87_876)"/>
<ellipse rx="4.62734" ry="5.16428" transform="matrix(1 0 0 -1 1184.7 309.053)" fill="url(#paint91_linear_87_876)"/>
<ellipse rx="4.62734" ry="5.16428" transform="matrix(1 0 0 -1 1366.37 309.053)" fill="url(#paint92_linear_87_876)"/>
<ellipse rx="4.62734" ry="5.16428" transform="matrix(1 0 0 -1 1548.04 309.053)" fill="url(#paint93_linear_87_876)"/>
<ellipse rx="4.62734" ry="5.16428" transform="matrix(1 0 0 -1 1729.71 309.053)" fill="url(#paint94_linear_87_876)"/>
<ellipse rx="4.62734" ry="5.16428" transform="matrix(1 0 0 -1 1911.37 309.053)" fill="url(#paint95_linear_87_876)"/>
<ellipse rx="4.62734" ry="5.16428" transform="matrix(1 0 0 -1 458.172 309.053)" fill="url(#paint96_linear_87_876)"/>
<ellipse rx="4.62734" ry="5.16428" transform="matrix(1 0 0 -1 276.647 309.053)" fill="url(#paint97_linear_87_876)"/>
<ellipse rx="4.62734" ry="5.16428" transform="matrix(1 0 0 -1 95.1176 309.053)" fill="url(#paint98_linear_87_876)"/>
<ellipse rx="4.62734" ry="5.16428" transform="matrix(1 0 0 -1 639.702 207.757)" fill="url(#paint99_linear_87_876)"/>
<ellipse rx="4.62734" ry="5.16428" transform="matrix(1 0 0 -1 821.37 207.757)" fill="url(#paint100_linear_87_876)"/>
<ellipse rx="4.62734" ry="5.16428" transform="matrix(1 0 0 -1 1003.04 207.757)" fill="url(#paint101_linear_87_876)"/>
<ellipse rx="4.62734" ry="5.16428" transform="matrix(1 0 0 -1 1184.7 207.757)" fill="url(#paint102_linear_87_876)"/>
<ellipse rx="4.62734" ry="5.16428" transform="matrix(1 0 0 -1 1366.37 207.757)" fill="url(#paint103_linear_87_876)"/>
<ellipse rx="4.62734" ry="5.16428" transform="matrix(1 0 0 -1 1548.04 207.757)" fill="url(#paint104_linear_87_876)"/>
<ellipse rx="4.62734" ry="5.16428" transform="matrix(1 0 0 -1 1729.71 207.757)" fill="url(#paint105_linear_87_876)"/>
<ellipse rx="4.62734" ry="5.16428" transform="matrix(1 0 0 -1 1911.37 207.757)" fill="url(#paint106_linear_87_876)"/>
<ellipse rx="4.62734" ry="5.16428" transform="matrix(1 0 0 -1 458.172 207.757)" fill="url(#paint107_linear_87_876)"/>
<ellipse rx="4.62734" ry="5.16428" transform="matrix(1 0 0 -1 276.647 207.757)" fill="url(#paint108_linear_87_876)"/>
<ellipse rx="4.62734" ry="5.16428" transform="matrix(1 0 0 -1 95.1176 207.757)" fill="url(#paint109_linear_87_876)"/>
<ellipse rx="4.62734" ry="5.16428" transform="matrix(1 0 0 -1 639.702 106.46)" fill="url(#paint110_linear_87_876)"/>
<ellipse rx="4.62734" ry="5.16428" transform="matrix(1 0 0 -1 821.37 106.46)" fill="url(#paint111_linear_87_876)"/>
<ellipse rx="4.62734" ry="5.16428" transform="matrix(1 0 0 -1 1003.04 106.46)" fill="url(#paint112_linear_87_876)"/>
<ellipse rx="4.62734" ry="5.16428" transform="matrix(1 0 0 -1 1184.7 106.46)" fill="url(#paint113_linear_87_876)"/>
<ellipse rx="4.62734" ry="5.16428" transform="matrix(1 0 0 -1 1366.37 106.46)" fill="url(#paint114_linear_87_876)"/>
<ellipse rx="4.62734" ry="5.16428" transform="matrix(1 0 0 -1 1548.04 106.46)" fill="url(#paint115_linear_87_876)"/>
<ellipse rx="4.62734" ry="5.16428" transform="matrix(1 0 0 -1 1729.71 106.46)" fill="url(#paint116_linear_87_876)"/>
<ellipse rx="4.62734" ry="5.16428" transform="matrix(1 0 0 -1 1911.37 106.46)" fill="url(#paint117_linear_87_876)"/>
<ellipse rx="4.62734" ry="5.16428" transform="matrix(1 0 0 -1 458.172 106.46)" fill="url(#paint118_linear_87_876)"/>
<ellipse rx="4.62734" ry="5.16428" transform="matrix(1 0 0 -1 276.647 106.46)" fill="url(#paint119_linear_87_876)"/>
<ellipse rx="4.62734" ry="5.16428" transform="matrix(1 0 0 -1 95.1176 106.46)" fill="url(#paint120_linear_87_876)"/>
<ellipse rx="4.62734" ry="5.16428" transform="matrix(1 0 0 -1 639.702 5.16384)" fill="url(#paint121_linear_87_876)"/>
<ellipse rx="4.62734" ry="5.16428" transform="matrix(1 0 0 -1 821.37 5.16384)" fill="url(#paint122_linear_87_876)"/>
<ellipse rx="4.62734" ry="5.16428" transform="matrix(1 0 0 -1 1003.04 5.16384)" fill="url(#paint123_linear_87_876)"/>
<ellipse rx="4.62734" ry="5.16428" transform="matrix(1 0 0 -1 1184.7 5.16384)" fill="url(#paint124_linear_87_876)"/>
<ellipse rx="4.62734" ry="5.16428" transform="matrix(1 0 0 -1 1366.37 5.16384)" fill="url(#paint125_linear_87_876)"/>
<ellipse rx="4.62734" ry="5.16428" transform="matrix(1 0 0 -1 1548.04 5.16384)" fill="url(#paint126_linear_87_876)"/>
<ellipse rx="4.62734" ry="5.16428" transform="matrix(1 0 0 -1 1729.71 5.16384)" fill="url(#paint127_linear_87_876)"/>
<ellipse rx="4.62734" ry="5.16428" transform="matrix(1 0 0 -1 1911.37 5.16384)" fill="url(#paint128_linear_87_876)"/>
<ellipse rx="4.62734" ry="5.16428" transform="matrix(1 0 0 -1 458.172 5.16384)" fill="url(#paint129_linear_87_876)"/>
<ellipse rx="4.62734" ry="5.16428" transform="matrix(1 0 0 -1 276.647 5.16384)" fill="url(#paint130_linear_87_876)"/>
<ellipse rx="4.62734" ry="5.16428" transform="matrix(1 0 0 -1 95.1176 5.16384)" fill="url(#paint131_linear_87_876)"/>
<defs>
<linearGradient id="paint0_linear_87_876" x1="4.62734" y1="0" x2="4.62734" y2="10.3286" gradientUnits="userSpaceOnUse">
<stop stop-color="#FFD6EA" stop-opacity="0.06"/>
<stop offset="1" stop-color="#FF9CA3" stop-opacity="0.05"/>
</linearGradient>
<linearGradient id="paint1_linear_87_876" x1="4.62734" y1="0" x2="4.62734" y2="10.3286" gradientUnits="userSpaceOnUse">
<stop stop-color="#FFD6EA" stop-opacity="0.06"/>
<stop offset="1" stop-color="#FF9CA3" stop-opacity="0.05"/>
</linearGradient>
<linearGradient id="paint2_linear_87_876" x1="4.62734" y1="0" x2="4.62734" y2="10.3286" gradientUnits="userSpaceOnUse">
<stop stop-color="#FFD6EA" stop-opacity="0.06"/>
<stop offset="1" stop-color="#FF9CA3" stop-opacity="0.05"/>
</linearGradient>
<linearGradient id="paint3_linear_87_876" x1="4.62734" y1="0" x2="4.62734" y2="10.3286" gradientUnits="userSpaceOnUse">
<stop stop-color="#FFD6EA" stop-opacity="0.06"/>
<stop offset="1" stop-color="#FF9CA3" stop-opacity="0.05"/>
</linearGradient>
<linearGradient id="paint4_linear_87_876" x1="4.62734" y1="0" x2="4.62734" y2="10.3286" gradientUnits="userSpaceOnUse">
<stop stop-color="#FFD6EA" stop-opacity="0.06"/>
<stop offset="1" stop-color="#FF9CA3" stop-opacity="0.05"/>
</linearGradient>
<linearGradient id="paint5_linear_87_876" x1="4.62734" y1="0" x2="4.62734" y2="10.3286" gradientUnits="userSpaceOnUse">
<stop stop-color="#FFD6EA" stop-opacity="0.06"/>
<stop offset="1" stop-color="#FF9CA3" stop-opacity="0.05"/>
</linearGradient>
<linearGradient id="paint6_linear_87_876" x1="4.62734" y1="0" x2="4.62734" y2="10.3286" gradientUnits="userSpaceOnUse">
<stop stop-color="#FFD6EA" stop-opacity="0.06"/>
<stop offset="1" stop-color="#FF9CA3" stop-opacity="0.05"/>
</linearGradient>
<linearGradient id="paint7_linear_87_876" x1="4.62734" y1="0" x2="4.62734" y2="10.3286" gradientUnits="userSpaceOnUse">
<stop stop-color="#FFD6EA" stop-opacity="0.06"/>
<stop offset="1" stop-color="#FF9CA3" stop-opacity="0.05"/>
</linearGradient>
<linearGradient id="paint8_linear_87_876" x1="4.62734" y1="0" x2="4.62734" y2="10.3286" gradientUnits="userSpaceOnUse">
<stop stop-color="#FFD6EA" stop-opacity="0.06"/>
<stop offset="1" stop-color="#FF9CA3" stop-opacity="0.05"/>
</linearGradient>
<linearGradient id="paint9_linear_87_876" x1="4.62734" y1="0" x2="4.62734" y2="10.3286" gradientUnits="userSpaceOnUse">
<stop stop-color="#FFD6EA" stop-opacity="0.06"/>
<stop offset="1" stop-color="#FF9CA3" stop-opacity="0.05"/>
</linearGradient>
<linearGradient id="paint10_linear_87_876" x1="4.62734" y1="0" x2="4.62734" y2="10.3286" gradientUnits="userSpaceOnUse">
<stop stop-color="#FFD6EA" stop-opacity="0.06"/>
<stop offset="1" stop-color="#FF9CA3" stop-opacity="0.05"/>
</linearGradient>
<linearGradient id="paint11_linear_87_876" x1="4.62734" y1="0" x2="4.62734" y2="10.3286" gradientUnits="userSpaceOnUse">
<stop stop-color="#FFD6EA" stop-opacity="0.06"/>
<stop offset="1" stop-color="#FF9CA3" stop-opacity="0.05"/>
</linearGradient>
<linearGradient id="paint12_linear_87_876" x1="4.62734" y1="0" x2="4.62734" y2="10.3286" gradientUnits="userSpaceOnUse">
<stop stop-color="#FFD6EA" stop-opacity="0.06"/>
<stop offset="1" stop-color="#FF9CA3" stop-opacity="0.05"/>
</linearGradient>
<linearGradient id="paint13_linear_87_876" x1="4.62734" y1="0" x2="4.62734" y2="10.3286" gradientUnits="userSpaceOnUse">
<stop stop-color="#FFD6EA" stop-opacity="0.06"/>
<stop offset="1" stop-color="#FF9CA3" stop-opacity="0.05"/>
</linearGradient>
<linearGradient id="paint14_linear_87_876" x1="4.62734" y1="0" x2="4.62734" y2="10.3286" gradientUnits="userSpaceOnUse">
<stop stop-color="#FFD6EA" stop-opacity="0.06"/>
<stop offset="1" stop-color="#FF9CA3" stop-opacity="0.05"/>
</linearGradient>
<linearGradient id="paint15_linear_87_876" x1="4.62734" y1="0" x2="4.62734" y2="10.3286" gradientUnits="userSpaceOnUse">
<stop stop-color="#FFD6EA" stop-opacity="0.06"/>
<stop offset="1" stop-color="#FF9CA3" stop-opacity="0.05"/>
</linearGradient>
<linearGradient id="paint16_linear_87_876" x1="4.62734" y1="0" x2="4.62734" y2="10.3286" gradientUnits="userSpaceOnUse">
<stop stop-color="#FFD6EA" stop-opacity="0.06"/>
<stop offset="1" stop-color="#FF9CA3" stop-opacity="0.05"/>
</linearGradient>
<linearGradient id="paint17_linear_87_876" x1="4.62734" y1="0" x2="4.62734" y2="10.3286" gradientUnits="userSpaceOnUse">
<stop stop-color="#FFD6EA" stop-opacity="0.06"/>
<stop offset="1" stop-color="#FF9CA3" stop-opacity="0.05"/>
</linearGradient>
<linearGradient id="paint18_linear_87_876" x1="4.62734" y1="0" x2="4.62734" y2="10.3286" gradientUnits="userSpaceOnUse">
<stop stop-color="#FFD6EA" stop-opacity="0.06"/>
<stop offset="1" stop-color="#FF9CA3" stop-opacity="0.05"/>
</linearGradient>
<linearGradient id="paint19_linear_87_876" x1="4.62734" y1="0" x2="4.62734" y2="10.3286" gradientUnits="userSpaceOnUse">
<stop stop-color="#FFD6EA" stop-opacity="0.06"/>
<stop offset="1" stop-color="#FF9CA3" stop-opacity="0.05"/>
</linearGradient>
<linearGradient id="paint20_linear_87_876" x1="4.62734" y1="0" x2="4.62734" y2="10.3286" gradientUnits="userSpaceOnUse">
<stop stop-color="#FFD6EA" stop-opacity="0.06"/>
<stop offset="1" stop-color="#FF9CA3" stop-opacity="0.05"/>
</linearGradient>
<linearGradient id="paint21_linear_87_876" x1="4.62734" y1="0" x2="4.62734" y2="10.3286" gradientUnits="userSpaceOnUse">
<stop stop-color="#FFD6EA" stop-opacity="0.06"/>
<stop offset="1" stop-color="#FF9CA3" stop-opacity="0.05"/>
</linearGradient>
<linearGradient id="paint22_linear_87_876" x1="4.62734" y1="0" x2="4.62734" y2="10.3286" gradientUnits="userSpaceOnUse">
<stop stop-color="#FFD6EA" stop-opacity="0.06"/>
<stop offset="1" stop-color="#FF9CA3" stop-opacity="0.05"/>
</linearGradient>
<linearGradient id="paint23_linear_87_876" x1="4.62734" y1="0" x2="4.62734" y2="10.3286" gradientUnits="userSpaceOnUse">
<stop stop-color="#FFD6EA" stop-opacity="0.06"/>
<stop offset="1" stop-color="#FF9CA3" stop-opacity="0.05"/>
</linearGradient>
<linearGradient id="paint24_linear_87_876" x1="4.62734" y1="0" x2="4.62734" y2="10.3286" gradientUnits="userSpaceOnUse">
<stop stop-color="#FFD6EA" stop-opacity="0.06"/>
<stop offset="1" stop-color="#FF9CA3" stop-opacity="0.05"/>
</linearGradient>
<linearGradient id="paint25_linear_87_876" x1="4.62734" y1="0" x2="4.62734" y2="10.3286" gradientUnits="userSpaceOnUse">
<stop stop-color="#FFD6EA" stop-opacity="0.06"/>
<stop offset="1" stop-color="#FF9CA3" stop-opacity="0.05"/>
</linearGradient>
<linearGradient id="paint26_linear_87_876" x1="4.62734" y1="0" x2="4.62734" y2="10.3286" gradientUnits="userSpaceOnUse">
<stop stop-color="#FFD6EA" stop-opacity="0.06"/>
<stop offset="1" stop-color="#FF9CA3" stop-opacity="0.05"/>
</linearGradient>
<linearGradient id="paint27_linear_87_876" x1="4.62734" y1="0" x2="4.62734" y2="10.3286" gradientUnits="userSpaceOnUse">
<stop stop-color="#FFD6EA" stop-opacity="0.06"/>
<stop offset="1" stop-color="#FF9CA3" stop-opacity="0.05"/>
</linearGradient>
<linearGradient id="paint28_linear_87_876" x1="4.62734" y1="0" x2="4.62734" y2="10.3286" gradientUnits="userSpaceOnUse">
<stop stop-color="#FFD6EA" stop-opacity="0.06"/>
<stop offset="1" stop-color="#FF9CA3" stop-opacity="0.05"/>
</linearGradient>
<linearGradient id="paint29_linear_87_876" x1="4.62734" y1="0" x2="4.62734" y2="10.3286" gradientUnits="userSpaceOnUse">
<stop stop-color="#FFD6EA" stop-opacity="0.06"/>
<stop offset="1" stop-color="#FF9CA3" stop-opacity="0.05"/>
</linearGradient>
<linearGradient id="paint30_linear_87_876" x1="4.62734" y1="0" x2="4.62734" y2="10.3286" gradientUnits="userSpaceOnUse">
<stop stop-color="#FFD6EA" stop-opacity="0.06"/>
<stop offset="1" stop-color="#FF9CA3" stop-opacity="0.05"/>
</linearGradient>
<linearGradient id="paint31_linear_87_876" x1="4.62734" y1="0" x2="4.62734" y2="10.3286" gradientUnits="userSpaceOnUse">
<stop stop-color="#FFD6EA" stop-opacity="0.06"/>
<stop offset="1" stop-color="#FF9CA3" stop-opacity="0.05"/>
</linearGradient>
<linearGradient id="paint32_linear_87_876" x1="4.62734" y1="0" x2="4.62734" y2="10.3286" gradientUnits="userSpaceOnUse">
<stop stop-color="#FFD6EA" stop-opacity="0.06"/>
<stop offset="1" stop-color="#FF9CA3" stop-opacity="0.05"/>
</linearGradient>
<linearGradient id="paint33_linear_87_876" x1="4.62734" y1="0" x2="4.62734" y2="10.3286" gradientUnits="userSpaceOnUse">
<stop stop-color="#FFD6EA" stop-opacity="0.06"/>
<stop offset="1" stop-color="#FF9CA3" stop-opacity="0.05"/>
</linearGradient>
<linearGradient id="paint34_linear_87_876" x1="4.62734" y1="0" x2="4.62734" y2="10.3286" gradientUnits="userSpaceOnUse">
<stop stop-color="#FFD6EA" stop-opacity="0.06"/>
<stop offset="1" stop-color="#FF9CA3" stop-opacity="0.05"/>
</linearGradient>
<linearGradient id="paint35_linear_87_876" x1="4.62734" y1="0" x2="4.62734" y2="10.3286" gradientUnits="userSpaceOnUse">
<stop stop-color="#FFD6EA" stop-opacity="0.06"/>
<stop offset="1" stop-color="#FF9CA3" stop-opacity="0.05"/>
</linearGradient>
<linearGradient id="paint36_linear_87_876" x1="4.62734" y1="0" x2="4.62734" y2="10.3286" gradientUnits="userSpaceOnUse">
<stop stop-color="#FFD6EA" stop-opacity="0.06"/>
<stop offset="1" stop-color="#FF9CA3" stop-opacity="0.05"/>
</linearGradient>
<linearGradient id="paint37_linear_87_876" x1="4.62734" y1="0" x2="4.62734" y2="10.3286" gradientUnits="userSpaceOnUse">
<stop stop-color="#FFD6EA" stop-opacity="0.06"/>
<stop offset="1" stop-color="#FF9CA3" stop-opacity="0.05"/>
</linearGradient>
<linearGradient id="paint38_linear_87_876" x1="4.62734" y1="0" x2="4.62734" y2="10.3286" gradientUnits="userSpaceOnUse">
<stop stop-color="#FFD6EA" stop-opacity="0.06"/>
<stop offset="1" stop-color="#FF9CA3" stop-opacity="0.05"/>
</linearGradient>
<linearGradient id="paint39_linear_87_876" x1="4.62734" y1="0" x2="4.62734" y2="10.3286" gradientUnits="userSpaceOnUse">
<stop stop-color="#FFD6EA" stop-opacity="0.06"/>
<stop offset="1" stop-color="#FF9CA3" stop-opacity="0.05"/>
</linearGradient>
<linearGradient id="paint40_linear_87_876" x1="4.62734" y1="0" x2="4.62734" y2="10.3286" gradientUnits="userSpaceOnUse">
<stop stop-color="#FFD6EA" stop-opacity="0.06"/>
<stop offset="1" stop-color="#FF9CA3" stop-opacity="0.05"/>
</linearGradient>
<linearGradient id="paint41_linear_87_876" x1="4.62734" y1="0" x2="4.62734" y2="10.3286" gradientUnits="userSpaceOnUse">
<stop stop-color="#FFD6EA" stop-opacity="0.06"/>
<stop offset="1" stop-color="#FF9CA3" stop-opacity="0.05"/>
</linearGradient>
<linearGradient id="paint42_linear_87_876" x1="4.62734" y1="0" x2="4.62734" y2="10.3286" gradientUnits="userSpaceOnUse">
<stop stop-color="#FFD6EA" stop-opacity="0.06"/>
<stop offset="1" stop-color="#FF9CA3" stop-opacity="0.05"/>
</linearGradient>
<linearGradient id="paint43_linear_87_876" x1="4.62734" y1="0" x2="4.62734" y2="10.3286" gradientUnits="userSpaceOnUse">
<stop stop-color="#FFD6EA" stop-opacity="0.06"/>
<stop offset="1" stop-color="#FF9CA3" stop-opacity="0.05"/>
</linearGradient>
<linearGradient id="paint44_linear_87_876" x1="4.62734" y1="0" x2="4.62734" y2="10.3286" gradientUnits="userSpaceOnUse">
<stop stop-color="#FFD6EA" stop-opacity="0.06"/>
<stop offset="1" stop-color="#FF9CA3" stop-opacity="0.05"/>
</linearGradient>
<linearGradient id="paint45_linear_87_876" x1="4.62734" y1="0" x2="4.62734" y2="10.3286" gradientUnits="userSpaceOnUse">
<stop stop-color="#FFD6EA" stop-opacity="0.06"/>
<stop offset="1" stop-color="#FF9CA3" stop-opacity="0.05"/>
</linearGradient>
<linearGradient id="paint46_linear_87_876" x1="4.62734" y1="0" x2="4.62734" y2="10.3286" gradientUnits="userSpaceOnUse">
<stop stop-color="#FFD6EA" stop-opacity="0.06"/>
<stop offset="1" stop-color="#FF9CA3" stop-opacity="0.05"/>
</linearGradient>
<linearGradient id="paint47_linear_87_876" x1="4.62734" y1="0" x2="4.62734" y2="10.3286" gradientUnits="userSpaceOnUse">
<stop stop-color="#FFD6EA" stop-opacity="0.06"/>
<stop offset="1" stop-color="#FF9CA3" stop-opacity="0.05"/>
</linearGradient>
<linearGradient id="paint48_linear_87_876" x1="4.62734" y1="0" x2="4.62734" y2="10.3286" gradientUnits="userSpaceOnUse">
<stop stop-color="#FFD6EA" stop-opacity="0.06"/>
<stop offset="1" stop-color="#FF9CA3" stop-opacity="0.05"/>
</linearGradient>
<linearGradient id="paint49_linear_87_876" x1="4.62734" y1="0" x2="4.62734" y2="10.3286" gradientUnits="userSpaceOnUse">
<stop stop-color="#FFD6EA" stop-opacity="0.06"/>
<stop offset="1" stop-color="#FF9CA3" stop-opacity="0.05"/>
</linearGradient>
<linearGradient id="paint50_linear_87_876" x1="4.62734" y1="0" x2="4.62734" y2="10.3286" gradientUnits="userSpaceOnUse">
<stop stop-color="#FFD6EA" stop-opacity="0.06"/>
<stop offset="1" stop-color="#FF9CA3" stop-opacity="0.05"/>
</linearGradient>
<linearGradient id="paint51_linear_87_876" x1="4.62734" y1="0" x2="4.62734" y2="10.3286" gradientUnits="userSpaceOnUse">
<stop stop-color="#FFD6EA" stop-opacity="0.06"/>
<stop offset="1" stop-color="#FF9CA3" stop-opacity="0.05"/>
</linearGradient>
<linearGradient id="paint52_linear_87_876" x1="4.62734" y1="0" x2="4.62734" y2="10.3286" gradientUnits="userSpaceOnUse">
<stop stop-color="#FFD6EA" stop-opacity="0.06"/>
<stop offset="1" stop-color="#FF9CA3" stop-opacity="0.05"/>
</linearGradient>
<linearGradient id="paint53_linear_87_876" x1="4.62734" y1="0" x2="4.62734" y2="10.3286" gradientUnits="userSpaceOnUse">
<stop stop-color="#FFD6EA" stop-opacity="0.06"/>
<stop offset="1" stop-color="#FF9CA3" stop-opacity="0.05"/>
</linearGradient>
<linearGradient id="paint54_linear_87_876" x1="4.62734" y1="0" x2="4.62734" y2="10.3286" gradientUnits="userSpaceOnUse">
<stop stop-color="#FFD6EA" stop-opacity="0.06"/>
<stop offset="1" stop-color="#FF9CA3" stop-opacity="0.05"/>
</linearGradient>
<linearGradient id="paint55_linear_87_876" x1="4.62734" y1="0" x2="4.62734" y2="10.3286" gradientUnits="userSpaceOnUse">
<stop stop-color="#FFD6EA" stop-opacity="0.06"/>
<stop offset="1" stop-color="#FF9CA3" stop-opacity="0.05"/>
</linearGradient>
<linearGradient id="paint56_linear_87_876" x1="4.62734" y1="0" x2="4.62734" y2="10.3286" gradientUnits="userSpaceOnUse">
<stop stop-color="#FFD6EA" stop-opacity="0.06"/>
<stop offset="1" stop-color="#FF9CA3" stop-opacity="0.05"/>
</linearGradient>
<linearGradient id="paint57_linear_87_876" x1="4.62734" y1="0" x2="4.62734" y2="10.3286" gradientUnits="userSpaceOnUse">
<stop stop-color="#FFD6EA" stop-opacity="0.06"/>
<stop offset="1" stop-color="#FF9CA3" stop-opacity="0.05"/>
</linearGradient>
<linearGradient id="paint58_linear_87_876" x1="4.62734" y1="0" x2="4.62734" y2="10.3286" gradientUnits="userSpaceOnUse">
<stop stop-color="#FFD6EA" stop-opacity="0.06"/>
<stop offset="1" stop-color="#FF9CA3" stop-opacity="0.05"/>
</linearGradient>
<linearGradient id="paint59_linear_87_876" x1="4.62734" y1="0" x2="4.62734" y2="10.3286" gradientUnits="userSpaceOnUse">
<stop stop-color="#FFD6EA" stop-opacity="0.06"/>
<stop offset="1" stop-color="#FF9CA3" stop-opacity="0.05"/>
</linearGradient>
<linearGradient id="paint60_linear_87_876" x1="4.62734" y1="0" x2="4.62734" y2="10.3286" gradientUnits="userSpaceOnUse">
<stop stop-color="#FFD6EA" stop-opacity="0.06"/>
<stop offset="1" stop-color="#FF9CA3" stop-opacity="0.05"/>
</linearGradient>
<linearGradient id="paint61_linear_87_876" x1="4.62734" y1="0" x2="4.62734" y2="10.3286" gradientUnits="userSpaceOnUse">
<stop stop-color="#FFD6EA" stop-opacity="0.06"/>
<stop offset="1" stop-color="#FF9CA3" stop-opacity="0.05"/>
</linearGradient>
<linearGradient id="paint62_linear_87_876" x1="4.62734" y1="0" x2="4.62734" y2="10.3286" gradientUnits="userSpaceOnUse">
<stop stop-color="#FFD6EA" stop-opacity="0.06"/>
<stop offset="1" stop-color="#FF9CA3" stop-opacity="0.05"/>
</linearGradient>
<linearGradient id="paint63_linear_87_876" x1="4.62734" y1="0" x2="4.62734" y2="10.3286" gradientUnits="userSpaceOnUse">
<stop stop-color="#FFD6EA" stop-opacity="0.06"/>
<stop offset="1" stop-color="#FF9CA3" stop-opacity="0.05"/>
</linearGradient>
<linearGradient id="paint64_linear_87_876" x1="4.62734" y1="0" x2="4.62734" y2="10.3286" gradientUnits="userSpaceOnUse">
<stop stop-color="#FFD6EA" stop-opacity="0.06"/>
<stop offset="1" stop-color="#FF9CA3" stop-opacity="0.05"/>
</linearGradient>
<linearGradient id="paint65_linear_87_876" x1="4.62734" y1="0" x2="4.62734" y2="10.3286" gradientUnits="userSpaceOnUse">
<stop stop-color="#FFD6EA" stop-opacity="0.06"/>
<stop offset="1" stop-color="#FF9CA3" stop-opacity="0.05"/>
</linearGradient>
<linearGradient id="paint66_linear_87_876" x1="4.62734" y1="0" x2="4.62734" y2="10.3286" gradientUnits="userSpaceOnUse">
<stop stop-color="#FFD6EA" stop-opacity="0.06"/>
<stop offset="1" stop-color="#FF9CA3" stop-opacity="0.05"/>
</linearGradient>
<linearGradient id="paint67_linear_87_876" x1="4.62734" y1="0" x2="4.62734" y2="10.3286" gradientUnits="userSpaceOnUse">
<stop stop-color="#FFD6EA" stop-opacity="0.06"/>
<stop offset="1" stop-color="#FF9CA3" stop-opacity="0.05"/>
</linearGradient>
<linearGradient id="paint68_linear_87_876" x1="4.62734" y1="0" x2="4.62734" y2="10.3286" gradientUnits="userSpaceOnUse">
<stop stop-color="#FFD6EA" stop-opacity="0.06"/>
<stop offset="1" stop-color="#FF9CA3" stop-opacity="0.05"/>
</linearGradient>
<linearGradient id="paint69_linear_87_876" x1="4.62734" y1="0" x2="4.62734" y2="10.3286" gradientUnits="userSpaceOnUse">
<stop stop-color="#FFD6EA" stop-opacity="0.06"/>
<stop offset="1" stop-color="#FF9CA3" stop-opacity="0.05"/>
</linearGradient>
<linearGradient id="paint70_linear_87_876" x1="4.62734" y1="0" x2="4.62734" y2="10.3286" gradientUnits="userSpaceOnUse">
<stop stop-color="#FFD6EA" stop-opacity="0.06"/>
<stop offset="1" stop-color="#FF9CA3" stop-opacity="0.05"/>
</linearGradient>
<linearGradient id="paint71_linear_87_876" x1="4.62734" y1="0" x2="4.62734" y2="10.3286" gradientUnits="userSpaceOnUse">
<stop stop-color="#FFD6EA" stop-opacity="0.06"/>
<stop offset="1" stop-color="#FF9CA3" stop-opacity="0.05"/>
</linearGradient>
<linearGradient id="paint72_linear_87_876" x1="4.62734" y1="0" x2="4.62734" y2="10.3286" gradientUnits="userSpaceOnUse">
<stop stop-color="#FFD6EA" stop-opacity="0.06"/>
<stop offset="1" stop-color="#FF9CA3" stop-opacity="0.05"/>
</linearGradient>
<linearGradient id="paint73_linear_87_876" x1="4.62734" y1="0" x2="4.62734" y2="10.3286" gradientUnits="userSpaceOnUse">
<stop stop-color="#FFD6EA" stop-opacity="0.06"/>
<stop offset="1" stop-color="#FF9CA3" stop-opacity="0.05"/>
</linearGradient>
<linearGradient id="paint74_linear_87_876" x1="4.62734" y1="0" x2="4.62734" y2="10.3286" gradientUnits="userSpaceOnUse">
<stop stop-color="#FFD6EA" stop-opacity="0.06"/>
<stop offset="1" stop-color="#FF9CA3" stop-opacity="0.05"/>
</linearGradient>
<linearGradient id="paint75_linear_87_876" x1="4.62734" y1="0" x2="4.62734" y2="10.3286" gradientUnits="userSpaceOnUse">
<stop stop-color="#FFD6EA" stop-opacity="0.06"/>
<stop offset="1" stop-color="#FF9CA3" stop-opacity="0.05"/>
</linearGradient>
<linearGradient id="paint76_linear_87_876" x1="4.62734" y1="0" x2="4.62734" y2="10.3286" gradientUnits="userSpaceOnUse">
<stop stop-color="#FFD6EA" stop-opacity="0.06"/>
<stop offset="1" stop-color="#FF9CA3" stop-opacity="0.05"/>
</linearGradient>
<linearGradient id="paint77_linear_87_876" x1="4.62734" y1="0" x2="4.62734" y2="10.3286" gradientUnits="userSpaceOnUse">
<stop stop-color="#FFD6EA" stop-opacity="0.06"/>
<stop offset="1" stop-color="#FF9CA3" stop-opacity="0.05"/>
</linearGradient>
<linearGradient id="paint78_linear_87_876" x1="4.62734" y1="0" x2="4.62734" y2="10.3286" gradientUnits="userSpaceOnUse">
<stop stop-color="#FFD6EA" stop-opacity="0.06"/>
<stop offset="1" stop-color="#FF9CA3" stop-opacity="0.05"/>
</linearGradient>
<linearGradient id="paint79_linear_87_876" x1="4.62734" y1="0" x2="4.62734" y2="10.3286" gradientUnits="userSpaceOnUse">
<stop stop-color="#FFD6EA" stop-opacity="0.06"/>
<stop offset="1" stop-color="#FF9CA3" stop-opacity="0.05"/>
</linearGradient>
<linearGradient id="paint80_linear_87_876" x1="4.62734" y1="0" x2="4.62734" y2="10.3286" gradientUnits="userSpaceOnUse">
<stop stop-color="#FFD6EA" stop-opacity="0.06"/>
<stop offset="1" stop-color="#FF9CA3" stop-opacity="0.05"/>
</linearGradient>
<linearGradient id="paint81_linear_87_876" x1="4.62734" y1="0" x2="4.62734" y2="10.3286" gradientUnits="userSpaceOnUse">
<stop stop-color="#FFD6EA" stop-opacity="0.06"/>
<stop offset="1" stop-color="#FF9CA3" stop-opacity="0.05"/>
</linearGradient>
<linearGradient id="paint82_linear_87_876" x1="4.62734" y1="0" x2="4.62734" y2="10.3286" gradientUnits="userSpaceOnUse">
<stop stop-color="#FFD6EA" stop-opacity="0.06"/>
<stop offset="1" stop-color="#FF9CA3" stop-opacity="0.05"/>
</linearGradient>
<linearGradient id="paint83_linear_87_876" x1="4.62734" y1="0" x2="4.62734" y2="10.3286" gradientUnits="userSpaceOnUse">
<stop stop-color="#FFD6EA" stop-opacity="0.06"/>
<stop offset="1" stop-color="#FF9CA3" stop-opacity="0.05"/>
</linearGradient>
<linearGradient id="paint84_linear_87_876" x1="4.62734" y1="0" x2="4.62734" y2="10.3286" gradientUnits="userSpaceOnUse">
<stop stop-color="#FFD6EA" stop-opacity="0.06"/>
<stop offset="1" stop-color="#FF9CA3" stop-opacity="0.05"/>
</linearGradient>
<linearGradient id="paint85_linear_87_876" x1="4.62734" y1="0" x2="4.62734" y2="10.3286" gradientUnits="userSpaceOnUse">
<stop stop-color="#FFD6EA" stop-opacity="0.06"/>
<stop offset="1" stop-color="#FF9CA3" stop-opacity="0.05"/>
</linearGradient>
<linearGradient id="paint86_linear_87_876" x1="4.62734" y1="0" x2="4.62734" y2="10.3286" gradientUnits="userSpaceOnUse">
<stop stop-color="#FFD6EA" stop-opacity="0.06"/>
<stop offset="1" stop-color="#FF9CA3" stop-opacity="0.05"/>
</linearGradient>
<linearGradient id="paint87_linear_87_876" x1="4.62734" y1="0" x2="4.62734" y2="10.3286" gradientUnits="userSpaceOnUse">
<stop stop-color="#FFD6EA" stop-opacity="0.06"/>
<stop offset="1" stop-color="#FF9CA3" stop-opacity="0.05"/>
</linearGradient>
<linearGradient id="paint88_linear_87_876" x1="4.62734" y1="0" x2="4.62734" y2="10.3286" gradientUnits="userSpaceOnUse">
<stop stop-color="#FFD6EA" stop-opacity="0.06"/>
<stop offset="1" stop-color="#FF9CA3" stop-opacity="0.05"/>
</linearGradient>
<linearGradient id="paint89_linear_87_876" x1="4.62734" y1="0" x2="4.62734" y2="10.3286" gradientUnits="userSpaceOnUse">
<stop stop-color="#FFD6EA" stop-opacity="0.06"/>
<stop offset="1" stop-color="#FF9CA3" stop-opacity="0.05"/>
</linearGradient>
<linearGradient id="paint90_linear_87_876" x1="4.62734" y1="0" x2="4.62734" y2="10.3286" gradientUnits="userSpaceOnUse">
<stop stop-color="#FFD6EA" stop-opacity="0.06"/>
<stop offset="1" stop-color="#FF9CA3" stop-opacity="0.05"/>
</linearGradient>
<linearGradient id="paint91_linear_87_876" x1="4.62734" y1="0" x2="4.62734" y2="10.3286" gradientUnits="userSpaceOnUse">
<stop stop-color="#FFD6EA" stop-opacity="0.06"/>
<stop offset="1" stop-color="#FF9CA3" stop-opacity="0.05"/>
</linearGradient>
<linearGradient id="paint92_linear_87_876" x1="4.62734" y1="0" x2="4.62734" y2="10.3286" gradientUnits="userSpaceOnUse">
<stop stop-color="#FFD6EA" stop-opacity="0.06"/>
<stop offset="1" stop-color="#FF9CA3" stop-opacity="0.05"/>
</linearGradient>
<linearGradient id="paint93_linear_87_876" x1="4.62734" y1="0" x2="4.62734" y2="10.3286" gradientUnits="userSpaceOnUse">
<stop stop-color="#FFD6EA" stop-opacity="0.06"/>
<stop offset="1" stop-color="#FF9CA3" stop-opacity="0.05"/>
</linearGradient>
<linearGradient id="paint94_linear_87_876" x1="4.62734" y1="0" x2="4.62734" y2="10.3286" gradientUnits="userSpaceOnUse">
<stop stop-color="#FFD6EA" stop-opacity="0.06"/>
<stop offset="1" stop-color="#FF9CA3" stop-opacity="0.05"/>
</linearGradient>
<linearGradient id="paint95_linear_87_876" x1="4.62734" y1="0" x2="4.62734" y2="10.3286" gradientUnits="userSpaceOnUse">
<stop stop-color="#FFD6EA" stop-opacity="0.06"/>
<stop offset="1" stop-color="#FF9CA3" stop-opacity="0.05"/>
</linearGradient>
<linearGradient id="paint96_linear_87_876" x1="4.62734" y1="0" x2="4.62734" y2="10.3286" gradientUnits="userSpaceOnUse">
<stop stop-color="#FFD6EA" stop-opacity="0.06"/>
<stop offset="1" stop-color="#FF9CA3" stop-opacity="0.05"/>
</linearGradient>
<linearGradient id="paint97_linear_87_876" x1="4.62734" y1="0" x2="4.62734" y2="10.3286" gradientUnits="userSpaceOnUse">
<stop stop-color="#FFD6EA" stop-opacity="0.06"/>
<stop offset="1" stop-color="#FF9CA3" stop-opacity="0.05"/>
</linearGradient>
<linearGradient id="paint98_linear_87_876" x1="4.62734" y1="0" x2="4.62734" y2="10.3286" gradientUnits="userSpaceOnUse">
<stop stop-color="#FFD6EA" stop-opacity="0.06"/>
<stop offset="1" stop-color="#FF9CA3" stop-opacity="0.05"/>
</linearGradient>
<linearGradient id="paint99_linear_87_876" x1="4.62734" y1="0" x2="4.62734" y2="10.3286" gradientUnits="userSpaceOnUse">
<stop stop-color="#FFD6EA" stop-opacity="0.06"/>
<stop offset="1" stop-color="#FF9CA3" stop-opacity="0.05"/>
</linearGradient>
<linearGradient id="paint100_linear_87_876" x1="4.62734" y1="0" x2="4.62734" y2="10.3286" gradientUnits="userSpaceOnUse">
<stop stop-color="#FFD6EA" stop-opacity="0.06"/>
<stop offset="1" stop-color="#FF9CA3" stop-opacity="0.05"/>
</linearGradient>
<linearGradient id="paint101_linear_87_876" x1="4.62734" y1="0" x2="4.62734" y2="10.3286" gradientUnits="userSpaceOnUse">
<stop stop-color="#FFD6EA" stop-opacity="0.06"/>
<stop offset="1" stop-color="#FF9CA3" stop-opacity="0.05"/>
</linearGradient>
<linearGradient id="paint102_linear_87_876" x1="4.62734" y1="0" x2="4.62734" y2="10.3286" gradientUnits="userSpaceOnUse">
<stop stop-color="#FFD6EA" stop-opacity="0.06"/>
<stop offset="1" stop-color="#FF9CA3" stop-opacity="0.05"/>
</linearGradient>
<linearGradient id="paint103_linear_87_876" x1="4.62734" y1="0" x2="4.62734" y2="10.3286" gradientUnits="userSpaceOnUse">
<stop stop-color="#FFD6EA" stop-opacity="0.06"/>
<stop offset="1" stop-color="#FF9CA3" stop-opacity="0.05"/>
</linearGradient>
<linearGradient id="paint104_linear_87_876" x1="4.62734" y1="0" x2="4.62734" y2="10.3286" gradientUnits="userSpaceOnUse">
<stop stop-color="#FFD6EA" stop-opacity="0.06"/>
<stop offset="1" stop-color="#FF9CA3" stop-opacity="0.05"/>
</linearGradient>
<linearGradient id="paint105_linear_87_876" x1="4.62734" y1="0" x2="4.62734" y2="10.3286" gradientUnits="userSpaceOnUse">
<stop stop-color="#FFD6EA" stop-opacity="0.06"/>
<stop offset="1" stop-color="#FF9CA3" stop-opacity="0.05"/>
</linearGradient>
<linearGradient id="paint106_linear_87_876" x1="4.62734" y1="0" x2="4.62734" y2="10.3286" gradientUnits="userSpaceOnUse">
<stop stop-color="#FFD6EA" stop-opacity="0.06"/>
<stop offset="1" stop-color="#FF9CA3" stop-opacity="0.05"/>
</linearGradient>
<linearGradient id="paint107_linear_87_876" x1="4.62734" y1="0" x2="4.62734" y2="10.3286" gradientUnits="userSpaceOnUse">
<stop stop-color="#FFD6EA" stop-opacity="0.06"/>
<stop offset="1" stop-color="#FF9CA3" stop-opacity="0.05"/>
</linearGradient>
<linearGradient id="paint108_linear_87_876" x1="4.62734" y1="0" x2="4.62734" y2="10.3286" gradientUnits="userSpaceOnUse">
<stop stop-color="#FFD6EA" stop-opacity="0.06"/>
<stop offset="1" stop-color="#FF9CA3" stop-opacity="0.05"/>
</linearGradient>
<linearGradient id="paint109_linear_87_876" x1="4.62734" y1="0" x2="4.62734" y2="10.3286" gradientUnits="userSpaceOnUse">
<stop stop-color="#FFD6EA" stop-opacity="0.06"/>
<stop offset="1" stop-color="#FF9CA3" stop-opacity="0.05"/>
</linearGradient>
<linearGradient id="paint110_linear_87_876" x1="4.62734" y1="0" x2="4.62734" y2="10.3286" gradientUnits="userSpaceOnUse">
<stop stop-color="#FFD6EA" stop-opacity="0.06"/>
<stop offset="1" stop-color="#FF9CA3" stop-opacity="0.05"/>
</linearGradient>
<linearGradient id="paint111_linear_87_876" x1="4.62734" y1="0" x2="4.62734" y2="10.3286" gradientUnits="userSpaceOnUse">
<stop stop-color="#FFD6EA" stop-opacity="0.06"/>
<stop offset="1" stop-color="#FF9CA3" stop-opacity="0.05"/>
</linearGradient>
<linearGradient id="paint112_linear_87_876" x1="4.62734" y1="0" x2="4.62734" y2="10.3286" gradientUnits="userSpaceOnUse">
<stop stop-color="#FFD6EA" stop-opacity="0.06"/>
<stop offset="1" stop-color="#FF9CA3" stop-opacity="0.05"/>
</linearGradient>
<linearGradient id="paint113_linear_87_876" x1="4.62734" y1="0" x2="4.62734" y2="10.3286" gradientUnits="userSpaceOnUse">
<stop stop-color="#FFD6EA" stop-opacity="0.06"/>
<stop offset="1" stop-color="#FF9CA3" stop-opacity="0.05"/>
</linearGradient>
<linearGradient id="paint114_linear_87_876" x1="4.62734" y1="0" x2="4.62734" y2="10.3286" gradientUnits="userSpaceOnUse">
<stop stop-color="#FFD6EA" stop-opacity="0.06"/>
<stop offset="1" stop-color="#FF9CA3" stop-opacity="0.05"/>
</linearGradient>
<linearGradient id="paint115_linear_87_876" x1="4.62734" y1="0" x2="4.62734" y2="10.3286" gradientUnits="userSpaceOnUse">
<stop stop-color="#FFD6EA" stop-opacity="0.06"/>
<stop offset="1" stop-color="#FF9CA3" stop-opacity="0.05"/>
</linearGradient>
<linearGradient id="paint116_linear_87_876" x1="4.62734" y1="0" x2="4.62734" y2="10.3286" gradientUnits="userSpaceOnUse">
<stop stop-color="#FFD6EA" stop-opacity="0.06"/>
<stop offset="1" stop-color="#FF9CA3" stop-opacity="0.05"/>
</linearGradient>
<linearGradient id="paint117_linear_87_876" x1="4.62734" y1="0" x2="4.62734" y2="10.3286" gradientUnits="userSpaceOnUse">
<stop stop-color="#FFD6EA" stop-opacity="0.06"/>
<stop offset="1" stop-color="#FF9CA3" stop-opacity="0.05"/>
</linearGradient>
<linearGradient id="paint118_linear_87_876" x1="4.62734" y1="0" x2="4.62734" y2="10.3286" gradientUnits="userSpaceOnUse">
<stop stop-color="#FFD6EA" stop-opacity="0.06"/>
<stop offset="1" stop-color="#FF9CA3" stop-opacity="0.05"/>
</linearGradient>
<linearGradient id="paint119_linear_87_876" x1="4.62734" y1="0" x2="4.62734" y2="10.3286" gradientUnits="userSpaceOnUse">
<stop stop-color="#FFD6EA" stop-opacity="0.06"/>
<stop offset="1" stop-color="#FF9CA3" stop-opacity="0.05"/>
</linearGradient>
<linearGradient id="paint120_linear_87_876" x1="4.62734" y1="0" x2="4.62734" y2="10.3286" gradientUnits="userSpaceOnUse">
<stop stop-color="#FFD6EA" stop-opacity="0.06"/>
<stop offset="1" stop-color="#FF9CA3" stop-opacity="0.05"/>
</linearGradient>
<linearGradient id="paint121_linear_87_876" x1="4.62734" y1="0" x2="4.62734" y2="10.3286" gradientUnits="userSpaceOnUse">
<stop stop-color="#FFD6EA" stop-opacity="0.06"/>
<stop offset="1" stop-color="#FF9CA3" stop-opacity="0.05"/>
</linearGradient>
<linearGradient id="paint122_linear_87_876" x1="4.62734" y1="0" x2="4.62734" y2="10.3286" gradientUnits="userSpaceOnUse">
<stop stop-color="#FFD6EA" stop-opacity="0.06"/>
<stop offset="1" stop-color="#FF9CA3" stop-opacity="0.05"/>
</linearGradient>
<linearGradient id="paint123_linear_87_876" x1="4.62734" y1="0" x2="4.62734" y2="10.3286" gradientUnits="userSpaceOnUse">
<stop stop-color="#FFD6EA" stop-opacity="0.06"/>
<stop offset="1" stop-color="#FF9CA3" stop-opacity="0.05"/>
</linearGradient>
<linearGradient id="paint124_linear_87_876" x1="4.62734" y1="0" x2="4.62734" y2="10.3286" gradientUnits="userSpaceOnUse">
<stop stop-color="#FFD6EA" stop-opacity="0.06"/>
<stop offset="1" stop-color="#FF9CA3" stop-opacity="0.05"/>
</linearGradient>
<linearGradient id="paint125_linear_87_876" x1="4.62734" y1="0" x2="4.62734" y2="10.3286" gradientUnits="userSpaceOnUse">
<stop stop-color="#FFD6EA" stop-opacity="0.06"/>
<stop offset="1" stop-color="#FF9CA3" stop-opacity="0.05"/>
</linearGradient>
<linearGradient id="paint126_linear_87_876" x1="4.62734" y1="0" x2="4.62734" y2="10.3286" gradientUnits="userSpaceOnUse">
<stop stop-color="#FFD6EA" stop-opacity="0.06"/>
<stop offset="1" stop-color="#FF9CA3" stop-opacity="0.05"/>
</linearGradient>
<linearGradient id="paint127_linear_87_876" x1="4.62734" y1="0" x2="4.62734" y2="10.3286" gradientUnits="userSpaceOnUse">
<stop stop-color="#FFD6EA" stop-opacity="0.06"/>
<stop offset="1" stop-color="#FF9CA3" stop-opacity="0.05"/>
</linearGradient>
<linearGradient id="paint128_linear_87_876" x1="4.62734" y1="0" x2="4.62734" y2="10.3286" gradientUnits="userSpaceOnUse">
<stop stop-color="#FFD6EA" stop-opacity="0.06"/>
<stop offset="1" stop-color="#FF9CA3" stop-opacity="0.05"/>
</linearGradient>
<linearGradient id="paint129_linear_87_876" x1="4.62734" y1="0" x2="4.62734" y2="10.3286" gradientUnits="userSpaceOnUse">
<stop stop-color="#FFD6EA" stop-opacity="0.06"/>
<stop offset="1" stop-color="#FF9CA3" stop-opacity="0.05"/>
</linearGradient>
<linearGradient id="paint130_linear_87_876" x1="4.62734" y1="0" x2="4.62734" y2="10.3286" gradientUnits="userSpaceOnUse">
<stop stop-color="#FFD6EA" stop-opacity="0.06"/>
<stop offset="1" stop-color="#FF9CA3" stop-opacity="0.05"/>
</linearGradient>
<linearGradient id="paint131_linear_87_876" x1="4.62734" y1="0" x2="4.62734" y2="10.3286" gradientUnits="userSpaceOnUse">
<stop stop-color="#FFD6EA" stop-opacity="0.06"/>
<stop offset="1" stop-color="#FF9CA3" stop-opacity="0.05"/>
</linearGradient>
</defs>
</svg>
