<svg width="46" height="46" viewBox="0 0 46 46" fill="none" xmlns="http://www.w3.org/2000/svg">
<circle cx="23" cy="23" r="22.5" stroke="#DADADA"/>
<path d="M27.75 19C27.75 17.6076 27.1969 16.2723 26.2123 15.2877C25.2277 14.3031 23.8924 13.75 22.5 13.75C21.1076 13.75 19.7723 14.3031 18.7877 15.2877C17.8031 16.2723 17.25 17.6076 17.25 19C17.25 25.125 14.625 26.875 14.625 26.875H30.375C30.375 26.875 27.75 25.125 27.75 19Z" stroke="#DADADA" stroke-width="2" stroke-linecap="round" stroke-linejoin="round"/>
<path d="M24.0138 30.375C23.86 30.6402 23.6392 30.8603 23.3735 31.0133C23.1079 31.1664 22.8067 31.2469 22.5001 31.2469C22.1935 31.2469 21.8923 31.1664 21.6266 31.0133C21.361 30.8603 21.1402 30.6402 20.9863 30.375" stroke="#DADADA" stroke-width="2" stroke-linecap="round" stroke-linejoin="round"/>
</svg>
