<svg width="24" height="24" viewBox="0 0 24 24" fill="none" xmlns="http://www.w3.org/2000/svg">
<path d="M5.88806 13.8493L10.1493 18.1129L17.9709 10.2913L13.7073 6.03015L5.88806 13.8493ZM22.9257 7.99695L21.1125 6.18255C20.6519 6.43419 20.1223 6.52989 19.6028 6.45532C19.0833 6.38076 18.6019 6.13993 18.2308 5.7689C17.8596 5.39787 17.6186 4.9166 17.5438 4.39714C17.4691 3.87768 17.5646 3.34798 17.8161 2.88735L16.0029 1.07295C15.7743 0.846366 15.4655 0.719238 15.1437 0.719238C14.8218 0.719238 14.513 0.846366 14.2845 1.07295L1.07246 14.2849C0.845878 14.5135 0.71875 14.8223 0.71875 15.1441C0.71875 15.466 0.845878 15.7748 1.07246 16.0034L2.88686 17.8153C3.34764 17.5631 3.87779 17.467 4.39781 17.5415C4.91782 17.616 5.39967 17.8571 5.77106 18.2286C6.14245 18.6001 6.38338 19.0821 6.4577 19.6021C6.53202 20.1221 6.43572 20.6523 6.18326 21.1129L7.99766 22.9249C8.22591 23.1521 8.53483 23.2796 8.85686 23.2796C9.17889 23.2796 9.48781 23.1521 9.71606 22.9249L22.9257 9.71535C23.1528 9.4871 23.2804 9.17818 23.2804 8.85615C23.2804 8.53412 23.1528 8.2252 22.9257 7.99695ZM10.1493 20.063L3.93806 13.8493L13.7085 4.08015L19.9197 10.2913L10.1493 20.063Z" fill="#8F8F8F"/>
</svg>
