<svg width="25" height="25" viewBox="0 0 25 25" fill="none" xmlns="http://www.w3.org/2000/svg">
<path d="M7.8125 12.5C7.8125 12.2928 7.89481 12.0941 8.04132 11.9476C8.18784 11.8011 8.38655 11.7188 8.59375 11.7188H15.625V6.64062C15.625 5.07812 13.9751 3.90625 12.5 3.90625H5.07812C4.35316 3.90703 3.65811 4.19536 3.14549 4.70799C2.63286 5.22061 2.34453 5.91566 2.34375 6.64062V18.3594C2.34453 19.0843 2.63286 19.7794 3.14549 20.292C3.65811 20.8046 4.35316 21.093 5.07812 21.0938H12.8906C13.6156 21.093 14.3106 20.8046 14.8233 20.292C15.3359 19.7794 15.6242 19.0843 15.625 18.3594V13.2812H8.59375C8.38655 13.2812 8.18784 13.1989 8.04132 13.0524C7.89481 12.9059 7.8125 12.7072 7.8125 12.5Z" fill="white"/>
<path d="M22.4272 11.9478L18.521 8.04152C18.3733 7.90119 18.1766 7.82412 17.9729 7.82672C17.7692 7.82933 17.5745 7.91142 17.4305 8.05548C17.2864 8.19955 17.2043 8.39419 17.2017 8.59791C17.1991 8.80163 17.2762 8.99831 17.4165 9.14601L19.9888 11.7188H15.625V13.2813H19.9888L17.4165 15.854C17.3409 15.9258 17.2804 16.0121 17.2387 16.1076C17.197 16.2032 17.1748 16.3061 17.1734 16.4104C17.1721 16.5147 17.1916 16.6182 17.2309 16.7148C17.2702 16.8113 17.3284 16.8991 17.4022 16.9728C17.4759 17.0466 17.5637 17.1048 17.6603 17.1441C17.7569 17.1834 17.8603 17.2029 17.9646 17.2016C18.0689 17.2003 18.1718 17.1781 18.2674 17.1363C18.3629 17.0946 18.4492 17.0341 18.521 16.9585L22.4272 13.0523C22.5736 12.9058 22.6559 12.7071 22.6559 12.5C22.6559 12.2929 22.5736 12.0943 22.4272 11.9478Z" fill="white"/>
</svg>
