<svg width="13" height="13" viewBox="0 0 13 13" fill="none" xmlns="http://www.w3.org/2000/svg">
<path fill-rule="evenodd" clip-rule="evenodd" d="M12.3633 12.1858L9.52062 9.25224C10.478 8.25981 11.0263 6.92553 11.0511 5.52746C11.076 4.12939 10.5755 2.7754 9.65393 1.74763C8.7324 0.719863 7.46092 0.0975899 6.10447 0.0105376C4.74803 -0.0765146 3.41125 0.378345 2.37272 1.28032C1.33419 2.1823 0.674028 3.46182 0.529805 4.85223C0.385583 6.24263 0.768427 7.63669 1.59856 8.74384C2.42868 9.851 3.64206 10.5859 4.98581 10.7953C6.32956 11.0047 7.70004 10.6725 8.81163 9.868L11.7108 12.8616C11.7539 12.9057 11.8051 12.9406 11.8613 12.9643C11.9176 12.9881 11.9778 13.0002 12.0386 13C12.0994 12.9998 12.1595 12.9873 12.2156 12.9631C12.2717 12.939 12.3226 12.9037 12.3655 12.8594C12.4083 12.815 12.4423 12.7624 12.4653 12.7045C12.4884 12.6467 12.5002 12.5847 12.5 12.5222C12.4998 12.4596 12.4876 12.3977 12.4642 12.34C12.4407 12.2823 12.4065 12.2299 12.3633 12.1858V12.1858ZM1.49828 5.45657C1.50101 4.58062 1.75597 3.72514 2.23096 2.99818C2.70594 2.27122 3.37966 1.70541 4.16702 1.37214C4.95437 1.03888 5.82006 0.9531 6.65475 1.12571C7.48945 1.29832 8.25571 1.72157 8.85676 2.34195C9.45782 2.96234 9.86671 3.75206 10.0318 4.61138C10.1969 5.47071 10.1108 6.36107 9.78436 7.17007C9.45792 7.97908 8.90579 8.67043 8.1977 9.1568C7.48961 9.64316 6.65732 9.90276 5.80594 9.90276C5.23931 9.90194 4.6784 9.78626 4.15523 9.56235C3.63206 9.33845 3.1569 9.01067 2.75687 8.59779C2.35685 8.1849 2.03981 7.69498 1.82386 7.156C1.6079 6.61703 1.49727 6.03955 1.49828 5.45657V5.45657Z" fill="#DADADA"/>
</svg>
