<svg width="21" height="21" viewBox="0 0 21 21" fill="none" xmlns="http://www.w3.org/2000/svg">
<path fill-rule="evenodd" clip-rule="evenodd" d="M10.4995 14C8.58221 14 7.02891 12.4334 7.02891 10.5C7.02891 8.5666 8.58221 7 10.4995 7C12.4168 7 13.9708 8.5666 13.9708 10.5C13.9708 12.4334 12.4168 14 10.4995 14ZM20.3051 12.9752L18.679 12.0288C18.77 11.5318 18.8302 11.0243 18.8302 10.5C18.8302 9.9764 18.77 9.46821 18.679 8.97121L20.3051 8.02479C20.9694 7.63839 21.1962 6.7816 20.8126 6.1124L19.4245 3.6876C19.0416 3.0184 18.1918 2.78811 17.5282 3.17521L15.8853 4.1307C15.1181 3.4727 14.2459 2.93439 13.2764 2.58789V1.4C13.2764 0.6272 12.6548 0 11.8876 0H9.11141C8.34421 0 7.72261 0.6272 7.72261 1.4V2.58789C6.75311 2.93439 5.88091 3.4727 5.11371 4.1307L3.47081 3.17521C2.80721 2.78811 1.95741 3.0184 1.57451 3.6876L0.186407 6.1124C-0.197193 6.7816 0.0303064 7.63839 0.693906 8.02479L2.32001 8.97121C2.22901 9.46821 2.16881 9.9764 2.16881 10.5C2.16881 11.0243 2.22901 11.5318 2.32001 12.0288L0.693906 12.9752C0.0303064 13.3616 -0.197193 14.2184 0.186407 14.8876L1.57451 17.3124C1.95741 17.9816 2.80721 18.2119 3.47081 17.8248L5.11371 16.8693C5.88091 17.5273 6.75311 18.0663 7.72261 18.4121V19.6C7.72261 20.3728 8.34421 21 9.11141 21H11.8876C12.6548 21 13.2764 20.3728 13.2764 19.6V18.4121C14.2459 18.0663 15.1181 17.5273 15.8853 16.8693L17.5282 17.8248C18.1918 18.2119 19.0416 17.9816 19.4245 17.3124L20.8126 14.8876C21.1962 14.2184 20.9694 13.3616 20.3051 12.9752ZM10.4995 8.4C9.34941 8.4 8.41701 9.3408 8.41701 10.5C8.41701 11.6599 9.34941 12.6 10.4995 12.6C11.6496 12.6 12.582 11.6599 12.582 10.5C12.582 9.3408 11.6496 8.4 10.4995 8.4Z" fill="#8F8F8F"/>
</svg>
