<svg width="23" height="23" viewBox="0 0 23 23" fill="none" xmlns="http://www.w3.org/2000/svg">
<path d="M18.6875 6.46875H4.3125C3.12164 6.46875 2.15625 7.43414 2.15625 8.625V17.25C2.15625 18.4409 3.12164 19.4062 4.3125 19.4062H18.6875C19.8784 19.4062 20.8438 18.4409 20.8438 17.25V8.625C20.8438 7.43414 19.8784 6.46875 18.6875 6.46875Z" stroke="white" stroke-width="2" stroke-linejoin="round"/>
<path d="M18.4791 6.46851V5.12086C18.479 4.79033 18.4059 4.46389 18.2651 4.16484C18.1243 3.8658 17.9193 3.60151 17.6646 3.39084C17.4099 3.18017 17.1118 3.0283 16.7917 2.94609C16.4715 2.86387 16.1372 2.85332 15.8125 2.9152L3.98188 4.93443C3.46811 5.03234 3.00462 5.30647 2.67135 5.70953C2.33807 6.1126 2.1559 6.61934 2.15625 7.14234V9.34351" stroke="white" stroke-width="2" stroke-linejoin="round"/>
<path d="M16.5312 14.375C16.2469 14.375 15.969 14.2907 15.7326 14.1327C15.4962 13.9748 15.312 13.7503 15.2032 13.4876C15.0944 13.2249 15.0659 12.9359 15.1214 12.6571C15.1768 12.3782 15.3137 12.1221 15.5148 11.921C15.7158 11.72 15.972 11.5831 16.2508 11.5276C16.5297 11.4722 16.8187 11.5006 17.0814 11.6094C17.344 11.7182 17.5685 11.9025 17.7265 12.1389C17.8844 12.3753 17.9687 12.6532 17.9687 12.9375C17.9687 13.3188 17.8173 13.6844 17.5477 13.954C17.2781 14.2236 16.9125 14.375 16.5312 14.375Z" fill="white"/>
</svg>
