<svg width="53" height="53" viewBox="0 0 53 53" fill="none" xmlns="http://www.w3.org/2000/svg">
<rect width="53" height="53" rx="4" fill="#323232"/>
<path fill-rule="evenodd" clip-rule="evenodd" d="M30.1257 19.2502C30.1257 19.9175 29.5847 20.4585 28.9173 20.4585C28.25 20.4585 27.709 19.9175 27.709 19.2502H15.6257V21.6662C17.1252 22.791 18.0423 24.5662 18.0423 26.5002C18.0423 28.4341 17.1252 30.2093 15.6257 31.3341V33.7502H27.709C27.709 33.0828 28.25 32.5418 28.9173 32.5418C29.5847 32.5418 30.1257 33.0828 30.1257 33.7502H37.3756V31.3341C35.8761 30.2093 34.959 28.4341 34.959 26.5002C34.959 24.5662 35.8761 22.791 37.3756 21.6662V19.2502H30.1257ZM39.7923 33.7502C39.7923 35.0849 38.7103 36.1668 37.3756 36.1668H15.6257C14.291 36.1668 13.209 35.0849 13.209 33.7502V29.9899L13.8123 29.6409C14.9262 28.9966 15.6257 27.81 15.6257 26.5002C15.6257 25.1904 14.9262 24.0037 13.8123 23.3594L13.209 23.0104V19.2502C13.209 17.9155 14.291 16.8335 15.6257 16.8335H37.3756C38.7103 16.8335 39.7923 17.9155 39.7923 19.2502V23.0104L39.189 23.3594C38.0751 24.0037 37.3756 25.1904 37.3756 26.5002C37.3756 27.81 38.0751 28.9966 39.189 29.6409L39.7923 29.9899V33.7502ZM28.9173 31.3335C28.25 31.3335 27.709 30.7925 27.709 30.1252C27.709 29.4578 28.25 28.9168 28.9173 28.9168C29.5847 28.9168 30.1257 29.4578 30.1257 30.1252C30.1257 30.7925 29.5847 31.3335 28.9173 31.3335ZM28.9173 27.7085C28.25 27.7085 27.709 27.1675 27.709 26.5002C27.709 25.8328 28.25 25.2918 28.9173 25.2918C29.5847 25.2918 30.1257 25.8328 30.1257 26.5002C30.1257 27.1675 29.5847 27.7085 28.9173 27.7085ZM28.9173 24.0835C28.25 24.0835 27.709 23.5425 27.709 22.8752C27.709 22.2078 28.25 21.6668 28.9173 21.6668C29.5847 21.6668 30.1257 22.2078 30.1257 22.8752C30.1257 23.5425 29.5847 24.0835 28.9173 24.0835Z" fill="#FF9EB6"/>
</svg>
