<svg width="19" height="19" viewBox="0 0 19 19" fill="none" xmlns="http://www.w3.org/2000/svg">
<path d="M18.9587 5.63803L16.7489 12.5978C16.5837 13.0935 16.15 13.4239 15.6337 13.4239H7.10435C6.6087 13.4239 6.1337 13.1141 5.96848 12.6598L2.70543 3.9239H0.826087C0.371739 3.9239 0 3.55216 0 3.09782C0 2.64347 0.371739 2.27173 0.826087 2.27173H3.2837C3.63478 2.27173 3.94457 2.4989 4.06848 2.82934L7.43478 11.7717H15.2826L17.038 6.19564H7.31087C6.85652 6.19564 6.48478 5.8239 6.48478 5.36955C6.48478 4.91521 6.85652 4.54347 7.31087 4.54347H18.1739C18.4424 4.54347 18.6902 4.68803 18.8348 4.89455C19 5.10108 19.0413 5.39021 18.9587 5.63803ZM7.51739 14.5185C7.1663 14.5185 6.81522 14.663 6.56739 14.9109C6.31956 15.1587 6.175 15.5098 6.175 15.8609C6.175 16.2119 6.31956 16.563 6.56739 16.8109C6.81522 17.0587 7.1663 17.2033 7.51739 17.2033C7.86848 17.2033 8.21957 17.0587 8.46739 16.8109C8.71522 16.563 8.85978 16.2119 8.85978 15.8609C8.85978 15.5098 8.71522 15.1587 8.46739 14.9109C8.21957 14.663 7.86848 14.5185 7.51739 14.5185ZM14.9315 14.5185C14.5804 14.5185 14.2293 14.663 13.9815 14.9109C13.7337 15.1587 13.5891 15.5098 13.5891 15.8609C13.5891 16.2119 13.7337 16.563 13.9815 16.8109C14.2293 17.0587 14.5804 17.2033 14.9315 17.2033C15.2826 17.2033 15.6337 17.0587 15.8815 16.8109C16.1293 16.563 16.2739 16.2119 16.2739 15.8609C16.2739 15.5098 16.1293 15.1587 15.8815 14.9109C15.6337 14.663 15.2826 14.5185 14.9315 14.5185Z" fill="#D6096E"/>
</svg>
