<svg width="86" height="84" viewBox="0 0 86 84" fill="none" xmlns="http://www.w3.org/2000/svg">
<rect x="0.876953" width="84.8538" height="84" rx="13" fill="#B85FD8"/>
<path fill-rule="evenodd" clip-rule="evenodd" d="M20 48.2662V35.7339C20 31.5179 22.2246 27.6203 25.8384 25.4992L37.5884 18.6067C39.3831 17.5544 41.4224 17 43.4987 17C45.575 17 47.6142 17.5544 49.4089 18.6067L61.159 25.4992C64.7754 27.6203 67 31.5179 67 35.7339V48.2662C67 52.4822 64.7754 56.3797 61.1616 58.5009L49.4116 65.3934C47.6168 66.4457 45.5776 67 43.5013 67C41.425 67 39.3858 66.4457 37.5911 65.3934L25.841 58.5009C22.2246 56.3797 20 52.4822 20 48.2662Z" fill="#77428A"/>
<path fill-rule="evenodd" clip-rule="evenodd" d="M45.2561 29.6131C45.3313 29.0637 44.6367 28.7729 44.3084 29.2164L33.1071 44.35C32.845 44.704 33.0939 45.2099 33.5303 45.2099H43.392C43.4676 45.2099 43.5424 45.2263 43.6113 45.2581C43.6802 45.29 43.7415 45.3364 43.7912 45.3943C43.8409 45.4522 43.8778 45.5203 43.8994 45.5939C43.921 45.6675 43.9268 45.7449 43.9164 45.821L42.7438 54.3869C42.6686 54.9364 43.3634 55.2271 43.6916 54.7835L54.8929 39.65C55.1551 39.296 54.9061 38.7901 54.4696 38.7901H44.6081C44.5324 38.7901 44.4576 38.7736 44.3887 38.7418C44.3199 38.71 44.2585 38.6636 44.2088 38.6057C44.1591 38.5477 44.1222 38.4797 44.1006 38.4061C44.0791 38.3325 44.0733 38.255 44.0837 38.179L45.2561 29.6131Z" fill="#E7A3FF"/>
</svg>
