<svg width="85" height="84" viewBox="0 0 85 84" fill="none" xmlns="http://www.w3.org/2000/svg">
<rect x="0.132812" width="84.8538" height="84" rx="13" fill="#11AD6C"/>
<g filter="url(#filter0_ii_115_105)">
<path fill-rule="evenodd" clip-rule="evenodd" d="M34.7977 66.502H27.887C26.5067 66.502 25.3867 65.3932 25.3867 64.0269V19.4751C25.3867 18.1088 26.5067 17 27.887 17H34.7977C35.1603 17 35.4903 17.2029 35.6528 17.5221C36.3241 18.8528 37.3567 19.9721 38.6349 20.7543C39.913 21.5365 41.386 21.9506 42.8886 21.9502C44.3911 21.95 45.8639 21.5357 47.1419 20.7536C48.4199 19.9715 49.4526 18.8525 50.1244 17.5221C50.2041 17.3652 50.3262 17.2333 50.4772 17.1411C50.6282 17.0489 50.8021 17.0001 50.9795 17H57.8902C59.2702 17 60.3904 18.1088 60.3904 19.4751V64.0269C60.3904 65.3932 59.2702 66.502 57.8902 66.502H50.9795C50.8021 66.5019 50.6282 66.4531 50.4772 66.3609C50.3262 66.2687 50.2041 66.1368 50.1244 65.9799L50.0669 65.871C49.3848 64.5692 48.3546 63.4779 47.0887 62.7162C45.8229 61.9546 44.3699 61.5518 42.8886 61.5518C41.3864 61.5518 39.9138 61.9657 38.6358 62.7473C37.3579 63.529 36.3249 64.6474 35.6528 65.9773V65.9797C35.5731 66.1367 35.451 66.2686 35.3 66.3608C35.149 66.453 34.9751 66.5019 34.7977 66.502Z" fill="#156544"/>
</g>
<path d="M36.6354 34.2371C36.5533 34.237 36.4721 34.2529 36.3963 34.284C36.3206 34.3151 36.2518 34.3607 36.1939 34.4182C36.136 34.4757 36.0902 34.544 36.0591 34.6192C36.028 34.6943 36.0122 34.7748 36.0127 34.8559C36.0169 35.0173 36.0846 35.1707 36.2014 35.2834C36.3181 35.396 36.4747 35.4591 36.6378 35.4591C36.8009 35.4591 36.9575 35.396 37.0743 35.2834C37.1911 35.1707 37.2587 35.0173 37.2629 34.8559C37.2628 34.7745 37.2465 34.6939 37.2149 34.6187C37.1833 34.5435 37.137 34.4752 37.0787 34.4177C37.0204 34.3603 36.9513 34.3147 36.8752 34.2837C36.7991 34.2528 36.7176 34.2369 36.6354 34.2371M36.4633 47.405L48.9647 35.0296L36.4633 47.405ZM49.1367 46.6127C49.0547 46.6126 48.9735 46.6285 48.8977 46.6596C48.822 46.6907 48.7532 46.7363 48.6953 46.7938C48.6374 46.8513 48.5916 46.9196 48.5605 46.9948C48.5294 47.0699 48.5136 47.1504 48.5141 47.2315C48.5183 47.3929 48.586 47.5463 48.7027 47.659C48.8195 47.7716 48.9761 47.8347 49.1392 47.8347C49.3023 47.8347 49.4589 47.7716 49.5757 47.659C49.6924 47.5463 49.7601 47.3929 49.7643 47.2315C49.7642 47.1501 49.7479 47.0695 49.7163 46.9943C49.6847 46.9191 49.6385 46.8508 49.5802 46.7933C49.5219 46.7358 49.4527 46.6903 49.3766 46.6593C49.3005 46.6283 49.219 46.6125 49.1367 46.6127V46.6127Z" stroke="#A5FFD9" stroke-width="4" stroke-linecap="round" stroke-linejoin="round"/>
<defs>
<filter id="filter0_ii_115_105" x="21.3867" y="17" width="43.0039" height="53.502" filterUnits="userSpaceOnUse" color-interpolation-filters="sRGB">
<feFlood flood-opacity="0" result="BackgroundImageFix"/>
<feBlend mode="normal" in="SourceGraphic" in2="BackgroundImageFix" result="shape"/>
<feColorMatrix in="SourceAlpha" type="matrix" values="0 0 0 0 0 0 0 0 0 0 0 0 0 0 0 0 0 0 127 0" result="hardAlpha"/>
<feOffset dx="4" dy="4"/>
<feGaussianBlur stdDeviation="4"/>
<feComposite in2="hardAlpha" operator="arithmetic" k2="-1" k3="1"/>
<feColorMatrix type="matrix" values="0 0 0 0 0.0567361 0 0 0 0 0.316667 0 0 0 0 0.209445 0 0 0 0.66 0"/>
<feBlend mode="normal" in2="shape" result="effect1_innerShadow_115_105"/>
<feColorMatrix in="SourceAlpha" type="matrix" values="0 0 0 0 0 0 0 0 0 0 0 0 0 0 0 0 0 0 127 0" result="hardAlpha"/>
<feOffset dx="-4" dy="4"/>
<feGaussianBlur stdDeviation="4"/>
<feComposite in2="hardAlpha" operator="arithmetic" k2="-1" k3="1"/>
<feColorMatrix type="matrix" values="0 0 0 0 0.054902 0 0 0 0 0.317647 0 0 0 0 0.207843 0 0 0 0.66 0"/>
<feBlend mode="normal" in2="effect1_innerShadow_115_105" result="effect2_innerShadow_115_105"/>
</filter>
</defs>
</svg>
