<svg width="86" height="84" viewBox="0 0 86 84" fill="none" xmlns="http://www.w3.org/2000/svg">
<rect x="0.547852" width="84.8538" height="84" rx="13" fill="#38C8AE"/>
<path d="M31.8111 29H26.8644C25.7198 29 24.792 29.9279 24.792 31.0725V53.9275C24.792 55.0721 25.7198 56 26.8644 56H31.8111C32.9556 56 33.8835 55.0721 33.8835 53.9275V31.0725C33.8835 29.9279 32.9556 29 31.8111 29Z" fill="#197867"/>
<path d="M59.085 29H54.1383C52.9938 29 52.0659 29.9279 52.0659 31.0725V53.9275C52.0659 55.0721 52.9938 56 54.1383 56H59.085C60.2296 56 61.1574 55.0721 61.1574 53.9275V31.0725C61.1574 29.9279 60.2296 29 59.085 29Z" fill="#197867"/>
<g filter="url(#filter0_i_115_93)">
<path d="M17.6685 40H12.7218C11.5773 40 10.6494 40.9291 10.6494 42.0751V53.9249C10.6494 55.0709 11.5773 56 12.7218 56H17.6685C18.813 56 19.7409 55.0709 19.7409 53.9249V42.0751C19.7409 40.9291 18.813 40 17.6685 40Z" fill="#289581"/>
</g>
<g filter="url(#filter1_i_115_93)">
<path d="M45.7228 40H40.2265C38.9548 40 37.9238 40.9291 37.9238 42.0751V53.9249C37.9238 55.0709 38.9548 56 40.2265 56H45.7228C46.9945 56 48.0255 55.0709 48.0255 53.9249V42.0751C48.0255 40.9291 46.9945 40 45.7228 40Z" fill="#289581"/>
</g>
<g filter="url(#filter2_i_115_93)">
<path d="M73.2276 40H68.2809C67.1363 40 66.2085 40.9291 66.2085 42.0751V53.9249C66.2085 55.0709 67.1363 56 68.2809 56H73.2276C74.3721 56 75.3 55.0709 75.3 53.9249V42.0751C75.3 40.9291 74.3721 40 73.2276 40Z" fill="#289581"/>
</g>
<defs>
<filter id="filter0_i_115_93" x="10.6494" y="40" width="13.0913" height="20" filterUnits="userSpaceOnUse" color-interpolation-filters="sRGB">
<feFlood flood-opacity="0" result="BackgroundImageFix"/>
<feBlend mode="normal" in="SourceGraphic" in2="BackgroundImageFix" result="shape"/>
<feColorMatrix in="SourceAlpha" type="matrix" values="0 0 0 0 0 0 0 0 0 0 0 0 0 0 0 0 0 0 127 0" result="hardAlpha"/>
<feOffset dx="4" dy="4"/>
<feGaussianBlur stdDeviation="4.5"/>
<feComposite in2="hardAlpha" operator="arithmetic" k2="-1" k3="1"/>
<feColorMatrix type="matrix" values="0 0 0 0 0.0605035 0 0 0 0 0.354167 0 0 0 0 0.301616 0 0 0 0.53 0"/>
<feBlend mode="normal" in2="shape" result="effect1_innerShadow_115_93"/>
</filter>
<filter id="filter1_i_115_93" x="37.9238" y="40" width="14.1016" height="20" filterUnits="userSpaceOnUse" color-interpolation-filters="sRGB">
<feFlood flood-opacity="0" result="BackgroundImageFix"/>
<feBlend mode="normal" in="SourceGraphic" in2="BackgroundImageFix" result="shape"/>
<feColorMatrix in="SourceAlpha" type="matrix" values="0 0 0 0 0 0 0 0 0 0 0 0 0 0 0 0 0 0 127 0" result="hardAlpha"/>
<feOffset dx="4" dy="4"/>
<feGaussianBlur stdDeviation="4.5"/>
<feComposite in2="hardAlpha" operator="arithmetic" k2="-1" k3="1"/>
<feColorMatrix type="matrix" values="0 0 0 0 0.0605035 0 0 0 0 0.354167 0 0 0 0 0.301616 0 0 0 0.53 0"/>
<feBlend mode="normal" in2="shape" result="effect1_innerShadow_115_93"/>
</filter>
<filter id="filter2_i_115_93" x="66.2085" y="40" width="13.0913" height="20" filterUnits="userSpaceOnUse" color-interpolation-filters="sRGB">
<feFlood flood-opacity="0" result="BackgroundImageFix"/>
<feBlend mode="normal" in="SourceGraphic" in2="BackgroundImageFix" result="shape"/>
<feColorMatrix in="SourceAlpha" type="matrix" values="0 0 0 0 0 0 0 0 0 0 0 0 0 0 0 0 0 0 127 0" result="hardAlpha"/>
<feOffset dx="4" dy="4"/>
<feGaussianBlur stdDeviation="4.5"/>
<feComposite in2="hardAlpha" operator="arithmetic" k2="-1" k3="1"/>
<feColorMatrix type="matrix" values="0 0 0 0 0.0605035 0 0 0 0 0.354167 0 0 0 0 0.301616 0 0 0 0.53 0"/>
<feBlend mode="normal" in2="shape" result="effect1_innerShadow_115_93"/>
</filter>
</defs>
</svg>
