<svg width="86" height="84" viewBox="0 0 86 84" fill="none" xmlns="http://www.w3.org/2000/svg">
<rect x="0.547852" width="84.8538" height="84" rx="13" fill="#E0B10B"/>
<path fill-rule="evenodd" clip-rule="evenodd" d="M35.475 51.637H36.6349C36.7692 51.6371 36.898 51.6893 36.9929 51.7821C37.0879 51.8749 37.1412 52.0008 37.1413 52.1321V53.2662C37.1412 53.3974 37.0878 53.5233 36.9928 53.6161C36.8979 53.7089 36.7692 53.761 36.6349 53.7611H35.475C35.3409 53.7606 35.2124 53.7083 35.1176 53.6156C35.0228 53.5229 34.9693 53.3973 34.9688 53.2662V52.1321C34.9664 51.8601 35.1946 51.637 35.475 51.637ZM39.4965 51.637H40.6565C40.7906 51.6374 40.9192 51.6897 41.014 51.7825C41.1089 51.8752 41.1624 52.0009 41.1629 52.1321V53.2662C41.1627 53.3974 41.1093 53.5233 41.0144 53.6161C40.9194 53.7089 40.7907 53.761 40.6565 53.7611H39.4965C39.3624 53.7606 39.234 53.7083 39.1391 53.6156C39.0443 53.5229 38.9908 53.3973 38.9903 53.2662V52.1321C38.9908 52.001 39.0442 51.8753 39.1391 51.7825C39.2339 51.6898 39.3624 51.6375 39.4965 51.637ZM43.521 51.637H44.6809C44.815 51.6375 44.9435 51.6898 45.0384 51.7825C45.1332 51.8753 45.1867 52.001 45.1871 52.1321V53.2662C45.1871 53.5403 44.9591 53.7611 44.6809 53.7611H43.521C43.3869 53.7606 43.2584 53.7083 43.1636 53.6156C43.0687 53.5229 43.0152 53.3973 43.0147 53.2662V52.1321C43.0122 51.8601 43.2404 51.637 43.521 51.637ZM47.5425 51.637H48.7024C48.8366 51.6374 48.9651 51.6897 49.06 51.7825C49.1549 51.8752 49.2084 52.0009 49.2089 52.1321V53.2662C49.2087 53.3974 49.1553 53.5233 49.0603 53.6161C48.9654 53.7089 48.8367 53.761 48.7024 53.7611H47.5425C47.408 53.7611 47.2791 53.709 47.1838 53.6162C47.0885 53.5235 47.0346 53.3976 47.034 53.2662V52.1321C47.0363 51.8601 47.2645 51.637 47.5425 51.637ZM51.5644 51.637H52.7245C52.859 51.637 52.988 51.6891 53.0833 51.7819C53.1786 51.8747 53.2325 52.0006 53.2331 52.1321V53.2662C53.233 53.3313 53.2197 53.3958 53.1941 53.456C53.1684 53.5161 53.1309 53.5707 53.0837 53.6167C53.0365 53.6626 52.9805 53.6991 52.9188 53.7238C52.8572 53.7486 52.7912 53.7613 52.7245 53.7611H51.5644C51.4303 53.7606 51.3019 53.7083 51.207 53.6156C51.1122 53.5229 51.0587 53.3973 51.0582 53.2662V52.1321C51.0586 52.001 51.1121 51.8753 51.207 51.7825C51.3018 51.6898 51.4303 51.6375 51.5644 51.637ZM39.6442 55.9248H40.8041C40.9382 55.9253 41.0666 55.9776 41.1615 56.0703C41.2563 56.163 41.3098 56.2886 41.3103 56.4197V57.5562C41.3098 57.6874 41.2563 57.813 41.1615 57.9057C41.0666 57.9984 40.9382 58.0507 40.8041 58.0512H39.6442C39.5099 58.0511 39.3812 57.9989 39.2863 57.9061C39.1914 57.8133 39.138 57.6875 39.1379 57.5562V56.4222C39.1375 56.357 39.1503 56.2923 39.1755 56.2319C39.2008 56.1715 39.238 56.1166 39.2851 56.0704C39.3321 56.0241 39.3881 55.9875 39.4497 55.9625C39.5114 55.9375 39.5774 55.9247 39.6442 55.9248ZM43.6657 55.9248H44.8256C44.9598 55.9252 45.0883 55.9775 45.1831 56.0702C45.278 56.1629 45.3315 56.2886 45.332 56.4197V57.5562C45.3315 57.6874 45.278 57.813 45.1831 57.9058C45.0883 57.9985 44.9598 58.0508 44.8256 58.0512H43.6657C43.5316 58.0507 43.4031 57.9984 43.3083 57.9057C43.2135 57.813 43.16 57.6874 43.1595 57.5562V56.4222C43.1591 56.357 43.1719 56.2923 43.1972 56.232C43.2224 56.1716 43.2597 56.1167 43.3067 56.0705C43.3538 56.0243 43.4097 55.9876 43.4713 55.9626C43.5329 55.9376 43.599 55.9247 43.6657 55.9248ZM47.6876 55.9248H48.8475C48.982 55.9248 49.1111 55.9768 49.2064 56.0696C49.3017 56.1623 49.3556 56.2882 49.3563 56.4197V57.5562C49.3556 57.6877 49.3017 57.8136 49.2064 57.9064C49.1111 57.9991 48.982 58.0512 48.8475 58.0512H47.6876C47.5535 58.0507 47.425 57.9984 47.3302 57.9057C47.2354 57.813 47.1819 57.6874 47.1814 57.5562V56.4222C47.1814 56.2907 47.2346 56.1645 47.3295 56.0713C47.4244 55.9781 47.5531 55.9254 47.6876 55.9248ZM43.521 47.031H44.6809C44.9591 47.031 45.1871 47.2539 45.1871 47.526V48.66C45.1871 48.9343 44.9591 49.155 44.6809 49.155H43.521C43.3869 49.1545 43.2584 49.1022 43.1636 49.0095C43.0687 48.9168 43.0152 48.7911 43.0147 48.66V47.526C43.0122 47.2539 43.2404 47.031 43.521 47.031ZM47.5425 47.031H48.7024C48.8366 47.0315 48.9651 47.0837 49.06 47.1765C49.1548 47.2692 49.2083 47.3948 49.2089 47.526V48.66C49.2088 48.7913 49.1554 48.9172 49.0604 49.01C48.9654 49.1028 48.8367 49.1549 48.7024 49.155H47.5425C47.408 49.1549 47.2791 49.1028 47.1838 49.0101C47.0885 48.9174 47.0346 48.7915 47.034 48.66V47.526C47.0354 47.3947 47.0895 47.2693 47.1846 47.1767C47.2797 47.0841 47.4083 47.0318 47.5425 47.031Z" fill="#F5E7B6"/>
<g filter="url(#filter0_ii_115_64)">
<path fill-rule="evenodd" clip-rule="evenodd" d="M37.1632 53.7124V50.5784H41.1583L44.5499 47.2517L49.2319 49.2021C50.9289 49.9091 52.8925 49.5345 54.194 48.2557L60.8441 41.7331C62.148 40.4543 62.5276 38.5283 61.809 36.8659L58.415 29.029C57.9576 27.972 57.0997 27.1305 56.022 26.682L48.0321 23.353C47.2031 23.0074 46.2876 22.9128 45.4034 23.0814C44.5191 23.2501 43.7065 23.6742 43.0699 24.2993L36.4199 30.8221C35.1183 32.0987 34.7364 34.0246 35.4572 35.6891L37.3937 40.1639L23.7817 53.5151V60.5675H30.9718L33.9681 57.6286V53.7102H37.1632V53.7124Z" fill="#947405"/>
</g>
<path fill-rule="evenodd" clip-rule="evenodd" d="M48.3383 32.2686C46.311 32.277 44.6653 33.891 44.6739 35.8795C44.6739 37.8679 46.3279 39.4819 48.3552 39.4737C50.3824 39.4737 52.028 37.8596 52.028 35.8711C52.028 33.8827 50.3824 32.2686 48.3552 32.2686" fill="#F5DC81"/>
<defs>
<filter id="filter0_ii_115_64" x="10.7817" y="17" width="61.3862" height="57.5675" filterUnits="userSpaceOnUse" color-interpolation-filters="sRGB">
<feFlood flood-opacity="0" result="BackgroundImageFix"/>
<feBlend mode="normal" in="SourceGraphic" in2="BackgroundImageFix" result="shape"/>
<feColorMatrix in="SourceAlpha" type="matrix" values="0 0 0 0 0 0 0 0 0 0 0 0 0 0 0 0 0 0 127 0" result="hardAlpha"/>
<feOffset dx="-13" dy="14"/>
<feGaussianBlur stdDeviation="7.5"/>
<feComposite in2="hardAlpha" operator="arithmetic" k2="-1" k3="1"/>
<feColorMatrix type="matrix" values="0 0 0 0 0.312812 0 0 0 0 0.278007 0 0 0 0 0.0121875 0 0 0 0.47 0"/>
<feBlend mode="normal" in2="shape" result="effect1_innerShadow_115_64"/>
<feColorMatrix in="SourceAlpha" type="matrix" values="0 0 0 0 0 0 0 0 0 0 0 0 0 0 0 0 0 0 127 0" result="hardAlpha"/>
<feOffset dx="10" dy="-6"/>
<feGaussianBlur stdDeviation="7.5"/>
<feComposite in2="hardAlpha" operator="arithmetic" k2="-1" k3="1"/>
<feColorMatrix type="matrix" values="0 0 0 0 0.313726 0 0 0 0 0.278431 0 0 0 0 0.0117647 0 0 0 0.47 0"/>
<feBlend mode="normal" in2="effect1_innerShadow_115_64" result="effect2_innerShadow_115_64"/>
</filter>
</defs>
</svg>
