<svg width="46" height="45" viewBox="0 0 46 45" fill="none" xmlns="http://www.w3.org/2000/svg">
<path d="M0 0H35C41.0751 0 46 4.92487 46 11V45H4C1.79086 45 0 43.2091 0 41V0Z" fill="#2B2B2B"/>
<path d="M23.3661 20.0519L22.9007 19.6379L22.0379 18.8704L22.0378 18.8704C21.0332 17.9766 19.3751 17.9765 18.3705 18.8702L23.3661 20.0519ZM23.3661 20.0519L23.8314 19.6377M23.3661 20.0519L23.8314 19.6377M23.8314 19.6377L24.6933 18.8704M23.8314 19.6377L24.6933 18.8704M24.6933 18.8704C25.6978 17.9766 27.3567 17.9765 28.3614 18.8702L24.6933 18.8704ZM18.3703 22.4249L18.3704 22.425L23.3659 26.8712L28.3614 22.425C28.3614 22.425 28.3614 22.425 28.3614 22.425C29.4765 21.4321 29.4765 19.8632 28.3615 18.8704L18.3703 22.4249ZM18.3703 22.4249C17.2547 21.4322 17.2544 19.8641 18.3703 18.8704L18.3703 22.4249Z" stroke="white" stroke-width="1.4"/>
<circle cx="23.5" cy="22.5" r="12" stroke="white"/>
</svg>
